<?xml version="1.0" encoding="UTF-8" standalone="no"?>
<svg
   width="54"
   height="17"
   viewBox="0 0 54 17"
   fill="none"
   version="1.1"
   id="svg1"
   sodipodi:docname="1400.svg"
   xml:space="preserve"
   inkscape:export-filename="1400.png"
   inkscape:export-xdpi="96"
   inkscape:export-ydpi="96"
   xmlns:inkscape="http://www.inkscape.org/namespaces/inkscape"
   xmlns:sodipodi="http://sodipodi.sourceforge.net/DTD/sodipodi-0.dtd"
   xmlns="http://www.w3.org/2000/svg"
   xmlns:svg="http://www.w3.org/2000/svg"><defs
     id="defs1" /><sodipodi:namedview
     id="namedview1"
     pagecolor="#ffffff"
     bordercolor="#000000"
     borderopacity="0.25"
     inkscape:showpageshadow="2"
     inkscape:pageopacity="0.0"
     inkscape:pagecheckerboard="0"
     inkscape:deskcolor="#d1d1d1"><inkscape:page
       x="0"
       y="0"
       width="54"
       height="17"
       id="page2"
       margin="0"
       bleed="0" /></sodipodi:namedview><path
     d="M 0.728,16 9.016,2.72 C 6.584,4.96 4.696,6.63467 3.352,7.744 1.85867,8.96 0.973333,9.57867 0.696,9.6 L 0.568,9.536 0.536,9.376 C 0.685333,9.22667 0.813333,9.10933 0.92,9.024 1.24,8.74667 1.656,8.40533 2.168,8 2.57333,7.68 2.97867,7.36 3.384,7.04 3.896,6.63467 4.55733,6.05867 5.368,5.312 L 8.664,2.208 c 0.59733,-0.576 1.13067,-1.06667 1.6,-1.472001 0.0853,-0.064 0.1813,-0.138666 0.288,-0.224 l 0.16,0.064 L 10.808,0.704 10.712,1.184 10.456,1.792 3.352,15.68 Z m 11.7928,0.16 2.0799,-3.168 -1.696,-0.224 -0.9919,-0.064 c -0.6187,0 -1.1414,0.1067 -1.5681,0.32 L 9.60875,13.312 C 9.45942,13.2907 9.37408,13.2693 9.35275,13.248 l -0.064,-0.16 c 0.064,-0.1067 0.11733,-0.2027 0.16,-0.288 0.128,-0.2347 0.30933,-0.512 0.544,-0.832 C 12.3394,8.72533 14.5048,5.088 16.4887,1.056 L 19.3048,0.799999 C 17.9394,2.89067 16.6594,4.71467 15.4648,6.272 14.1634,8 12.5741,9.984 10.6967,12.224 l 0.736,-0.192 0.448,-0.032 c 0.5334,0 1.4081,0.096 2.6241,0.288 l 0.5439,0.096 C 17.3314,8.928 18.7821,6.80533 19.4008,6.016 20.0194,5.20533 20.4141,4.8 20.5848,4.8 l 0.16,0.064 0.064,0.16 -1.3121,2.464 c -0.8533,1.57867 -1.6746,3.2213 -2.4639,4.928 0.576,-0.064 1.1733,-0.2987 1.7919,-0.704 l 0.896,-0.608 0.1601,0.064 0.0639,0.16 c -0.0213,0.064 -0.0533,0.128 -0.0959,0.192 -0.0214,0.064 -0.1067,0.1707 -0.256,0.32 -0.128,0.128 -0.256,0.2453 -0.384,0.352 -0.128,0.1067 -0.288,0.2133 -0.48,0.32 l -0.9281,0.448 c -0.2773,0.0853 -0.6079,0.128 -0.9919,0.128 h -0.16 l -0.544,1.12 -0.704,1.664 z M 25.3027,8.928 c 0,-0.34133 0.128,-0.672 0.384,-0.992 0.2987,-0.32 0.608,-0.48 0.928,-0.48 0.2347,0 0.4374,0.096 0.608,0.288 0.192,0.17067 0.288,0.384 0.288,0.64 0,0.36267 -0.1386,0.704 -0.416,1.024 -0.256,0.29867 -0.5546,0.448 -0.896,0.448 -0.256,0 -0.4693,-0.096 -0.64,-0.288 -0.1706,-0.192 -0.256,-0.40533 -0.256,-0.64 z m -3.712,6.304 c 0,-0.3627 0.128,-0.6933 0.384,-0.992 0.2774,-0.32 0.5867,-0.48 0.928,-0.48 0.2134,0 0.4267,0.0853 0.64,0.256 0.128,0.1707 0.2134,0.3947 0.256,0.672 0,0.3627 -0.1386,0.704 -0.416,1.024 -0.256,0.2987 -0.544,0.448 -0.864,0.448 -0.2346,0 -0.4586,-0.0853 -0.672,-0.256 -0.128,-0.1707 -0.2133,-0.3947 -0.256,-0.672 z"
     fill="#452806"
     id="path1"
     sodipodi:nodetypes="ccccccccccccccccccccccccccccccccccccccccccccccccssccsccccscscscscsccscccscc" /><path
     d="m 34.269823,8.3934629 h 0.256 c 0.8107,0 1.4507,0.224 1.92,0.672 0.4693,0.448 0.704,1.0773301 0.704,1.8880001 0,0.64 -0.1493,1.248 -0.448,1.824 -0.1493,0.32 -0.3733,0.672 -0.672,1.056 -0.2133,0.256 -0.4053,0.4693 -0.576,0.64 -0.6827,0.6187 -1.472,1.1307 -2.368,1.536 -0.896,0.384 -1.7493,0.576 -2.56,0.576 -1.0027,0 -1.8027,-0.2667 -2.4,-0.8 -0.5973,-0.5333 -0.896,-1.216 -0.896,-2.048 0,-0.5333 0.128,-0.9707 0.384,-1.312 0.256,-0.3627 0.5973,-0.544 1.024,-0.544 0.32,0 0.5653,0.1067 0.736,0.32 0.192,0.192 0.288,0.4587 0.288,0.8 0,0.4693 -0.256,0.832 -0.768,1.088 -0.4907,0.2347 -0.736,0.416 -0.736,0.544 0,0.256 0.192,0.5333 0.576,0.832 0.4053,0.2347 0.8533,0.352 1.344,0.352 0.6827,0 1.3333,-0.1813 1.952,-0.544 0.6187,-0.384 1.2907,-1.024 2.016,-1.92 0.2347,-0.32 0.4373,-0.6187 0.608,-0.896 0.192,-0.2773 0.352,-0.5547 0.48,-0.832 0.256,-0.5547 0.384,-1.024 0.384,-1.408 0,-0.4266701 -0.1173,-0.7466701 -0.352,-0.9600001 -0.192,-0.23467 -0.5013,-0.352 -0.928,-0.352 -0.4053,0 -0.864,0.128 -1.376,0.384 -0.192,0.10667 -0.4053,0.20267 -0.64,0.288 -0.064,0.02133 -0.1493,0.05333 -0.256,0.096 l -0.192,-0.064 c -0.064,-0.08533 -0.096,-0.14933 -0.096,-0.192 0,-0.17067 0.3733,-0.448 1.12,-0.832 0.384,-0.192 0.7253,-0.37333 1.024,-0.544 0.32,-0.17067 0.5973,-0.33067 0.832,-0.48 1.1947,-0.768 2.0907,-1.54667 2.688,-2.336 0.6187,-0.78933 0.928,-1.52533 0.928,-2.208 0,-0.448 -0.1707,-0.81067 -0.512,-1.088 -0.4053,-0.256 -0.8747,-0.384 -1.408,-0.384 -0.9813,0 -1.9307,0.352 -2.848,1.056 -0.9173,0.68267 -1.376,1.408 -1.376,2.176 0,0.34133 0.064,0.58667 0.192,0.736 0.1493,0.14933 0.416,0.24533 0.8,0.288 0.4267,0 0.8853,-0.18133 1.376,-0.544 0.512,-0.29867 0.96,-0.74667 1.344,-1.344 0.0853,-0.14933 0.16,-0.288 0.224,-0.416 0.0853,-0.14933 0.16,-0.34133 0.224,-0.576 0.0853,-0.256 0.1813,-0.384 0.288,-0.384 l 0.128,0.064 0.032,0.192 c 0,0.98133 -0.3733,1.86667 -1.12,2.656 -0.7253,0.768 -1.5253,1.152 -2.4,1.152 -0.512,0 -0.9067,-0.13867 -1.184,-0.416 -0.0853,-0.10667 -0.16,-0.21333 -0.224,-0.32 -0.128,-0.23467 -0.192,-0.512 -0.192,-0.832 0,-0.98133 0.544,-1.90933 1.632,-2.784 1.1093,-0.874667 2.336,-1.31200103 3.68,-1.31200103 0.8747,0 1.5787,0.23466703 2.112,0.70400103 0.5547,0.46933 0.832,1.06667 0.832,1.792 0,1.024 -0.448,1.93067 -1.344,2.72 -0.8747,0.78933 -2.2933,1.536 -4.256,2.24 z m 8.3912,5.8240001 c 0,0.5333 0.096,0.96 0.288,1.28 0.2134,0.32 0.4907,0.5013 0.832,0.544 0.704,0 1.4614,-0.3733 2.272,-1.12 0.4054,-0.384 0.832,-0.8533 1.28,-1.408 0.448,-0.576 0.896,-1.2373 1.344,-1.984 0.96,-1.5360001 1.696,-3.0293301 2.208,-4.4800001 0.512,-1.472 0.7681,-2.752 0.7681,-3.84 0,-0.576 -0.1174,-1.01333 -0.3521,-1.312 -0.192,-0.32 -0.5013,-0.48 -0.928,-0.48 -0.5973,0 -1.28,0.32 -2.048,0.96 -0.768,0.64 -1.536,1.536 -2.304,2.688 -0.4693,0.72533 -0.9173,1.51467 -1.344,2.368 -0.4266,0.832 -0.7893,1.67467 -1.088,2.528 -0.6186,1.7493001 -0.928,3.1680001 -0.928,4.2560001 z m 0.928,2.368 c -0.7253,0 -1.344,-0.3627 -1.856,-1.088 -0.2133,-0.32 -0.384,-0.736 -0.512,-1.248 -0.128,-0.512 -0.192,-1.0453 -0.192,-1.6 0,-1.4293 0.3734,-2.9333301 1.12,-4.5120001 0.768,-1.6 1.824,-3.06133 3.168,-4.384 0.96,-0.91733 1.8774,-1.61067 2.752,-2.08 0.8747,-0.490668 1.6534,-0.73600103 2.336,-0.73600103 0.6614,0 1.184,0.26666703 1.568,0.80000103 0.384,0.512 0.576,1.23733 0.576,2.176 0,1.17333 -0.2666,2.464 -0.8,3.872 -0.2773,0.704 -0.5973,1.39733 -0.96,2.08 -0.3626,0.6827001 -0.8,1.3867001 -1.312,2.1120001 -0.512,0.7253 -1.0133,1.3547 -1.504,1.888 -0.4693,0.512 -1.0026,1.0133 -1.6,1.504 -1.0666,0.8107 -1.9946,1.216 -2.784,1.216 z"
     style="fill:#452806"
     id="path1-7" /></svg>
