<?xml version="1.0" encoding="UTF-8" standalone="no"?>
<svg
   width="54"
   height="17"
   viewBox="0 0 54 17"
   fill="none"
   version="1.1"
   id="svg1"
   sodipodi:docname="1400.svg"
   xml:space="preserve"
   inkscape:export-filename="1400.svg"
   inkscape:export-xdpi="105.5"
   inkscape:export-ydpi="105.5"
   xmlns:inkscape="http://www.inkscape.org/namespaces/inkscape"
   xmlns:sodipodi="http://sodipodi.sourceforge.net/DTD/sodipodi-0.dtd"
   xmlns="http://www.w3.org/2000/svg"
   xmlns:svg="http://www.w3.org/2000/svg"><defs
     id="defs1" /><sodipodi:namedview
     id="namedview1"
     pagecolor="#ffffff"
     bordercolor="#000000"
     borderopacity="0.25"
     inkscape:showpageshadow="2"
     inkscape:pageopacity="0.0"
     inkscape:pagecheckerboard="0"
     inkscape:deskcolor="#d1d1d1"><inkscape:page
       x="0"
       y="0"
       width="54"
       height="17"
       id="page2"
       margin="0"
       bleed="0" /></sodipodi:namedview><g
     style="fill:none"
     id="g3"
     transform="translate(-0.37424155,0.11065491)"><path
       d="M 0.728,16 9.016,2.72 C 6.584,4.96 4.696,6.63467 3.352,7.744 1.85867,8.96 0.973333,9.57867 0.696,9.6 L 0.568,9.536 0.536,9.376 C 0.685333,9.22667 0.813333,9.10933 0.92,9.024 1.24,8.74667 1.656,8.40533 2.168,8 2.57333,7.68 2.97867,7.36 3.384,7.04 3.896,6.63467 4.55733,6.05867 5.368,5.312 L 8.664,2.208 c 0.59733,-0.576 1.13067,-1.06667 1.6,-1.472001 0.0853,-0.064 0.1813,-0.138666 0.288,-0.224 l 0.16,0.064 L 10.808,0.704 10.712,1.184 10.456,1.792 3.352,15.68 Z M 15.2088,7.968 C 15.1234,7.84 14.9741,7.584 14.7607,7.2 14.5474,6.79467 14.3874,6.464 14.2807,6.208 14.1954,5.952 14.1314,5.728 14.0887,5.536 14.0461,5.32267 14.0248,5.07733 14.0248,4.8 c 0,-1.152 0.5013,-2.15467 1.5039,-3.008 1.0027,-0.853334 2.1441,-1.280001 3.4241,-1.280001 0.9386,0 1.6533,0.245333 2.144,0.736001 0.5333,0.448 0.8,1.09867 0.8,1.952 0,0.81067 -0.3947,1.61067 -1.184,2.4 -0.768,0.78933 -1.8347,1.42933 -3.2,1.92 0.4906,0.74667 0.8426,1.408 1.056,1.984 0.2133,0.5547 0.32,1.056 0.32,1.504 0,1.344 -0.5867,2.5387 -1.7601,3.584 -1.1733,1.0453 -2.4959,1.568 -3.968,1.568 -0.9386,0 -1.7386,-0.2773 -2.4,-0.832 -0.6186,-0.576 -0.92795,-1.3013 -0.92795,-2.176 0,-0.9387 0.40535,-1.8133 1.21595,-2.624 0.8107,-0.81067 2.1974,-1.664 4.1601,-2.56 z m 2.016,-0.864 c 1.1733,-0.42667 2.0479,-0.992 2.624,-1.696 0.64,-0.704 0.96,-1.504 0.96,-2.4 0,-0.59733 -0.1707,-1.088 -0.512,-1.472 -0.3414,-0.384 -0.8107,-0.576001 -1.408,-0.576001 -0.7467,0 -1.408,0.288001 -1.9841,0.864001 -0.576,0.55467 -0.8639,1.216 -0.8639,1.984 0,0.40533 0.096,0.88533 0.288,1.44 0.1919,0.53333 0.4906,1.152 0.896,1.856 z m -1.76,1.28 c -1.4934,0.66133 -2.6241,1.39733 -3.3921,2.208 -0.7466,0.8107 -1.12,1.6747 -1.12,2.592 0,0.7253 0.2134,1.3227 0.64,1.792 0.448,0.4693 1.0454,0.704 1.792,0.704 0.9814,0 1.8134,-0.3413 2.4961,-1.024 0.704,-0.6827 1.056,-1.4933 1.056,-2.432 0,-0.5333 -0.1174,-1.1307 -0.352,-1.792 -0.128,-0.3413 -0.288,-0.672 -0.48,-0.992 -0.1707,-0.34133 -0.384,-0.69333 -0.64,-1.056 z M 25.584,8.928 c 0,-0.34133 0.128,-0.672 0.384,-0.992 0.2987,-0.32 0.608,-0.48 0.928,-0.48 0.2347,0 0.4373,0.096 0.608,0.288 0.192,0.17067 0.288,0.384 0.288,0.64 0,0.36267 -0.1387,0.704 -0.416,1.024 C 27.12,9.70667 26.8213,9.856 26.48,9.856 26.224,9.856 26.0107,9.76 25.84,9.568 25.6693,9.376 25.584,9.16267 25.584,8.928 Z m -3.712,6.304 c 0,-0.3627 0.128,-0.6933 0.384,-0.992 0.2773,-0.32 0.5867,-0.48 0.928,-0.48 0.2133,0 0.4267,0.0853 0.64,0.256 0.128,0.1707 0.2133,0.3947 0.256,0.672 0,0.3627 -0.1387,0.704 -0.416,1.024 -0.256,0.2987 -0.544,0.448 -0.864,0.448 -0.2347,0 -0.4587,-0.0853 -0.672,-0.256 C 22,15.7333 21.9147,15.5093 21.872,15.232 Z m 22.5212,-1.44 c 0,0.5333 0.096,0.96 0.288,1.28 0.2134,0.32 0.4907,0.5013 0.832,0.544 0.704,0 1.4614,-0.3733 2.272,-1.12 0.4054,-0.384 0.832,-0.8533 1.28,-1.408 0.448,-0.576 0.896,-1.2373 1.344,-1.984 0.96,-1.536 1.696,-3.02933 2.208,-4.48 0.512,-1.472 0.7681,-2.752 0.7681,-3.84 0,-0.576 -0.1174,-1.01333 -0.3521,-1.312 -0.192,-0.32 -0.5013,-0.48 -0.928,-0.48 -0.5973,0 -1.28,0.32 -2.048,0.96 -0.768,0.64 -1.536,1.536 -2.304,2.688 -0.4693,0.72533 -0.9173,1.51467 -1.344,2.368 -0.4266,0.832 -0.7893,1.67467 -1.088,2.528 -0.6186,1.7493 -0.928,3.168 -0.928,4.256 z m 0.928,2.368 c -0.7253,0 -1.344,-0.3627 -1.856,-1.088 -0.2133,-0.32 -0.384,-0.736 -0.512,-1.248 -0.128,-0.512 -0.192,-1.0453 -0.192,-1.6 0,-1.4293 0.3734,-2.93333 1.12,-4.512 0.768,-1.6 1.824,-3.06133 3.168,-4.384 0.96,-0.91733 1.8774,-1.61067 2.752,-2.08 0.8747,-0.490668 1.6534,-0.736001 2.336,-0.736001 0.6614,0 1.184,0.266667 1.568,0.800001 0.384,0.512 0.576,1.23733 0.576,2.176 0,1.17333 -0.2666,2.464 -0.8,3.872 -0.2773,0.704 -0.5973,1.39733 -0.96,2.08 -0.3626,0.6827 -0.8,1.3867 -1.312,2.112 -0.512,0.7253 -1.0133,1.3547 -1.504,1.888 -0.4693,0.512 -1.0026,1.0133 -1.6,1.504 -1.0666,0.8107 -1.9946,1.216 -2.784,1.216 z"
       fill="#452806"
       id="path1-02"
       sodipodi:nodetypes="cccccccccccccccccccccccscscscccscscsccccscscsccccscscscccscscscsssccscccsccsccccccscsscccsscsscccscsccsccs" /><path
       d="m 31.729547,13.949324 c 0,0.5333 0.096,0.96 0.288,1.28 0.2134,0.32 0.4907,0.5013 0.832,0.544 0.704,0 1.4614,-0.3733 2.272,-1.12 0.4054,-0.384 0.832,-0.8533 1.28,-1.408 0.448,-0.576 0.896,-1.2373 1.344,-1.984 0.96,-1.5360005 1.696,-3.0293305 2.208,-4.4800005 0.512,-1.472 0.7681,-2.752 0.7681,-3.84 0,-0.576 -0.1174,-1.01333 -0.3521,-1.312 -0.192,-0.32 -0.5013,-0.48 -0.928,-0.48 -0.5973,0 -1.28,0.32 -2.048,0.96 -0.768,0.64 -1.536,1.536 -2.304,2.688 -0.4693,0.72533 -0.9173,1.51467 -1.344,2.368 -0.4266,0.832 -0.7893,1.67467 -1.088,2.528 -0.6186,1.7493005 -0.928,3.1680005 -0.928,4.2560005 z m 0.928,2.368 c -0.7253,0 -1.344,-0.3627 -1.856,-1.088 -0.2133,-0.32 -0.384,-0.736 -0.512,-1.248 -0.128,-0.512 -0.192,-1.0453 -0.192,-1.6 0,-1.4293 0.3734,-2.9333305 1.12,-4.5120005 0.768,-1.6 1.824,-3.06133 3.168,-4.384 0.96,-0.91733 1.8774,-1.61067 2.752,-2.08 0.8747,-0.49066797 1.6534,-0.73600097 2.336,-0.73600097 0.6614,0 1.184,0.266667 1.568,0.80000097 0.384,0.512 0.576,1.23733 0.576,2.176 0,1.17333 -0.2666,2.464 -0.8,3.872 -0.2773,0.704 -0.5973,1.39733 -0.96,2.08 -0.3626,0.6827005 -0.8,1.3867005 -1.312,2.1120005 -0.512,0.7253 -1.0133,1.3547 -1.504,1.888 -0.4693,0.512 -1.0026,1.0133 -1.6,1.504 -1.0666,0.8107 -1.9946,1.216 -2.784,1.216 z"
       style="fill:#452806"
       id="path1-3"
       sodipodi:nodetypes="sccccccscsscccsscsscccscsccsccs" /></g></svg>
