<?xml version="1.0" encoding="UTF-8" standalone="no"?>
<!-- Created with Inkscape (http://www.inkscape.org/) -->

<svg
   width="420mm"
   height="594mm"
   viewBox="0 0 210 297"
   version="1.1"
   id="svg1"
   xml:space="preserve"
   xmlns="http://www.w3.org/2000/svg"
   xmlns:svg="http://www.w3.org/2000/svg"><defs
     id="defs1" /><g
     id="layer1"><path
       style="fill:#000000"
       d="m 37.068833,192.86933 c -0.283722,-0.45907 0.458403,-1.58584 1.497303,-2.27335 0.76592,-0.50686 1.01535,-0.83798 0.95432,-1.26687 -0.094,-0.66057 -1.086326,-0.93287 -1.661135,-0.45582 -0.233122,0.19347 -0.415928,0.20524 -0.522014,0.0336 -0.208338,-0.3371 0.682553,-0.81988 1.512954,-0.81988 0.350815,0 0.853783,0.23861 1.117707,0.53024 0.630771,0.697 0.243544,1.60125 -1.043829,2.43755 -1.438803,0.93468 -1.406092,1.26555 0.125119,1.26555 0.992156,0 1.314613,0.0973 1.314613,0.39687 0,0.30824 -0.351043,0.39688 -1.571885,0.39688 -0.864537,0 -1.639956,-0.11014 -1.723153,-0.24476 z m 4.470502,-0.13049 c -0.657715,-0.48093 -0.380551,-0.76952 0.441487,-0.45968 1.015774,0.38286 1.874601,-0.0765 1.774249,-0.94906 -0.07943,-0.69064 -0.151676,-0.72721 -1.354272,-0.68555 l -1.270363,0.044 0.07974,-1.23463 0.07974,-1.23463 1.389063,-0.08 c 0.798372,-0.046 1.389062,0.0319 1.389062,0.18323 0,0.14475 -0.506015,0.2998 -1.124479,0.34455 -0.934779,0.0676 -1.138742,0.18179 -1.209027,0.67667 -0.07563,0.53251 0.02747,0.59532 0.977185,0.59532 0.797227,0 1.164341,0.14649 1.47361,0.58803 0.565069,0.80675 0.519213,1.18077 -0.237554,1.93753 -0.72956,0.72956 -1.643402,0.8336 -2.408437,0.27419 z m 18.277677,0.1208 c -0.327565,-0.53001 0.162161,-1.32612 1.332985,-2.16695 0.646786,-0.46448 1.17429,-1.0586 1.17429,-1.32258 0,-0.60517 -1.080492,-0.9023 -1.827439,-0.50255 -0.441864,0.23648 -0.553811,0.22001 -0.553811,-0.0815 0,-0.4469 0.561374,-0.69908 1.556223,-0.69908 0.915815,0 1.354194,0.44127 1.354194,1.36313 0,0.56521 -0.26639,0.9114 -1.190625,1.54729 -0.654844,0.45054 -1.190625,0.92599 -1.190625,1.05655 0,0.13055 0.565547,0.27366 1.256771,0.31801 0.691224,0.0444 1.256771,0.19971 1.256771,0.34523 0,0.3621 -2.950992,0.49474 -3.168734,0.14243 z m 4.823898,-0.26877 c -1.75217,-1.37825 -0.594774,-4.70956 1.548476,-4.45695 0.398365,0.047 0.772816,0.23314 0.832112,0.41374 0.0768,0.23392 -0.118686,0.28307 -0.679639,0.17088 -0.589626,-0.11793 -0.927312,-0.0176 -1.344177,0.39924 -0.306201,0.3062 -0.556728,0.72912 -0.556728,0.93983 0,0.31127 0.149709,0.33093 0.79828,0.10483 1.654254,-0.57667 2.811361,1.19409 1.58297,2.42248 -0.669308,0.66931 -1.335664,0.67113 -2.181294,0.006 z m 2.019746,-0.68658 c 0.21533,-0.56114 -0.283711,-1.43604 -0.819115,-1.43604 -0.764577,0 -1.419129,0.79389 -1.118181,1.35622 0.330733,0.61798 1.708994,0.67477 1.937296,0.0798 z m 15.661125,0.97992 c -0.258556,-0.41835 0.281118,-1.49956 0.975629,-1.95462 0.953246,-0.62459 1.516461,-1.24328 1.516461,-1.66582 0,-0.50982 -1.14948,-0.75904 -1.82744,-0.39621 -0.448833,0.24021 -0.55381,0.22036 -0.55381,-0.10475 0,-0.52255 1.207894,-0.81797 2.087677,-0.5106 0.515687,0.18017 0.710998,0.45183 0.771637,1.07328 0.07098,0.72745 -0.07038,0.93634 -1.124479,1.66158 -0.663118,0.45624 -1.205668,0.93634 -1.205668,1.0669 0,0.13055 0.565546,0.27366 1.25677,0.31801 0.691224,0.0444 1.256771,0.19971 1.256771,0.34523 0,0.34447 -2.947399,0.50056 -3.153548,0.167 z m 4.814837,0.0832 c -0.08068,-0.0807 0.180663,-0.82483 0.580771,-1.65365 1.288143,-2.66838 1.286978,-2.69757 -0.107563,-2.69757 -0.664651,0 -1.208455,-0.11906 -1.208455,-0.26458 0,-0.14699 0.705555,-0.26459 1.5875,-0.26459 1.944555,0 1.957216,0.0702 0.526214,2.91629 -1.086046,2.16004 -1.125834,2.21673 -1.378467,1.9641 z m 19.776232,-0.10775 c -0.32757,-0.53001 0.16216,-1.32612 1.33298,-2.16695 0.64679,-0.46448 1.17429,-1.0586 1.17429,-1.32258 0,-0.60517 -1.08049,-0.9023 -1.82744,-0.50255 -0.44186,0.23648 -0.55381,0.22001 -0.55381,-0.0815 0,-0.4469 0.56137,-0.69908 1.55622,-0.69908 0.91582,0 1.3542,0.44127 1.3542,1.36313 0,0.56521 -0.26639,0.9114 -1.19063,1.54729 -0.65484,0.45054 -1.19062,0.93251 -1.19062,1.07104 0,0.13853 0.60523,0.25188 1.34496,0.25188 0.95777,0 1.31356,0.0952 1.23587,0.33072 -0.13742,0.41659 -2.99369,0.60069 -3.23602,0.20858 z m 4.38216,-0.43811 c -0.54683,-0.69518 -0.5251,-0.92009 0.16697,-1.72857 0.25216,-0.29459 0.28213,-0.49345 0.092,-0.61093 -0.155,-0.0958 -0.28182,-0.46061 -0.28182,-0.81071 0,-1.16431 1.9063,-1.61851 2.77309,-0.66072 0.42309,0.46751 0.43249,0.58589 0.0878,1.10509 -0.34551,0.52037 -0.33539,0.63219 0.0963,1.0639 0.63638,0.63637 0.60939,0.90866 -0.16701,1.68506 -0.88183,0.88183 -2.05415,0.86356 -2.76735,-0.0431 z m 1.94435,-0.0947 c 0.82486,-0.31361 0.87874,-0.93919 0.11604,-1.34737 -1.15228,-0.61669 -2.47288,0.66887 -1.35559,1.31963 0.57381,0.33422 0.44126,0.33125 1.23955,0.0277 z m 0.25695,-2.72699 c 0.39337,-0.62361 -0.15155,-1.09642 -1.01411,-0.87993 -0.78349,0.19664 -0.89402,0.8043 -0.21781,1.19745 0.5695,0.3311 0.87196,0.25315 1.23192,-0.31752 z m 17.99295,3.15129 c -0.21895,-0.57055 0.26579,-1.3153 1.32822,-2.04071 1.13705,-0.77635 1.35906,-1.26378 0.82079,-1.80205 -0.33203,-0.33202 -0.55447,-0.35209 -1.20035,-0.1083 -0.64465,0.24333 -0.7928,0.23033 -0.7928,-0.0696 0,-0.49524 1.23159,-0.77741 2.08768,-0.47831 0.51569,0.18017 0.711,0.45183 0.77164,1.07328 0.071,0.72745 -0.0704,0.93634 -1.12448,1.66158 -0.66312,0.45624 -1.20567,0.93634 -1.20567,1.0669 0,0.13055 0.56554,0.27366 1.25677,0.31801 1.75809,0.11282 1.57137,0.59342 -0.26779,0.68926 -1.15184,0.06 -1.56109,-0.0158 -1.67401,-0.31006 z m 4.71992,0.18768 c -0.1819,-0.0734 -0.33073,-0.30632 -0.33073,-0.51759 0,-0.30967 0.10899,-0.32581 0.56221,-0.0832 0.45742,0.2448 0.69167,0.20432 1.25677,-0.21717 0.38201,-0.28493 0.73314,-0.7142 0.78028,-0.95393 0.0725,-0.36837 -0.0235,-0.39434 -0.61972,-0.16766 -1.0145,0.38571 -2.08577,-0.17565 -2.19781,-1.15167 -0.18263,-1.59109 1.68646,-2.35267 2.81799,-1.14822 0.84449,0.89892 0.80536,2.88577 -0.0742,3.76528 -0.60772,0.60773 -1.42587,0.78449 -2.19484,0.47421 z m 2.05464,-2.87245 c 0.27292,-0.32884 0.24733,-0.49705 -0.1409,-0.92604 -0.26092,-0.28831 -0.68988,-0.5242 -0.95325,-0.5242 -0.57364,0 -1.0883,0.85434 -0.86508,1.43604 0.20523,0.53482 1.51925,0.54435 1.95923,0.0142 z m 17.8401,2.67243 c -0.65772,-0.48093 -0.38055,-0.76952 0.44149,-0.45968 0.35171,0.13256 0.89602,0.13963 1.22732,0.0159 1.10927,-0.41419 0.53569,-1.56225 -0.78053,-1.56225 -0.40745,0 -0.74083,-0.11907 -0.74083,-0.26459 0,-0.14552 0.22839,-0.26458 0.50753,-0.26458 0.86119,0 1.34455,-0.29851 1.34455,-0.83036 0,-0.6733 -0.69271,-0.91129 -1.62651,-0.55882 -0.59011,0.22274 -0.75474,0.2095 -0.75474,-0.0607 0,-0.72316 2.09295,-0.93611 2.64638,-0.26926 0.19411,0.23389 0.26547,0.7198 0.17336,1.18037 -0.0861,0.43056 -0.0414,0.85401 0.0993,0.941 0.14075,0.087 0.25591,0.50158 0.25591,0.9213 0,1.31897 -1.6611,2.03951 -2.79328,1.21164 z m 4.85164,0.0939 c -0.64937,-0.37848 -1.04918,-2.06425 -0.74287,-3.13229 0.34601,-1.20646 0.74613,-1.61341 1.58632,-1.61341 1.38858,0 2.18957,1.77368 1.60326,3.55022 -0.43634,1.32213 -1.41172,1.79871 -2.44671,1.19548 z m 1.49462,-0.66355 c 0.47415,-0.47415 0.55767,-2.26431 0.14188,-3.04121 -0.15064,-0.28147 -0.50364,-0.51177 -0.78444,-0.51177 -0.66761,0 -1.05833,0.76805 -1.05833,2.08037 0,0.98386 0.50693,1.88838 1.05833,1.88838 0.12473,0 0.41389,-0.1871 0.64256,-0.41577 z m 16.48921,0.76255 c -0.25466,-0.0666 -0.46302,-0.28255 -0.46302,-0.48 0,-0.27261 0.18987,-0.30456 0.78895,-0.13274 0.6078,0.17431 0.92476,0.11629 1.38048,-0.25273 0.50641,-0.41007 0.54051,-0.54047 0.23699,-0.90619 -0.19828,-0.23891 -0.74842,-0.4272 -1.24819,-0.4272 -0.49151,0 -0.89365,-0.11907 -0.89365,-0.26459 0,-0.14552 0.34261,-0.26458 0.76136,-0.26458 1.0608,0 1.59241,-0.67005 1.0009,-1.26155 -0.36606,-0.36607 -0.57632,-0.39026 -1.23404,-0.142 -0.64465,0.24333 -0.7928,0.23033 -0.7928,-0.0696 0,-0.49548 1.23195,-0.77741 2.08768,-0.47776 0.77106,0.26999 1.05429,1.22081 0.54607,1.83318 -0.20257,0.24408 -0.21636,0.38231 -0.0381,0.38231 0.15353,0 0.35473,0.23813 0.4471,0.52917 0.43846,1.38148 -0.88829,2.37629 -2.57969,1.93428 z m 5.35781,-1.80199 c 0,-1.60179 -0.0408,-1.72102 -0.59531,-1.7377 l -0.59531,-0.0179 0.59531,-0.28711 c 0.32742,-0.15791 0.59531,-0.44751 0.59531,-0.64355 0,-0.19605 0.11907,-0.35645 0.26459,-0.35645 0.15679,0 0.26458,0.97014 0.26458,2.38125 0,1.41111 -0.10779,2.38125 -0.26458,2.38125 -0.14925,0 -0.26459,-0.74965 -0.26459,-1.71979 z M 38.511787,175.78388 c 0,-1.60671 -0.03914,-1.71988 -0.595312,-1.72111 -0.563827,-0.001 -0.553332,-0.0357 0.198437,-0.65194 0.436563,-0.35785 0.883047,-0.65491 0.992188,-0.66015 0.10914,-0.005 0.198437,1.06205 0.198437,2.37174 0,1.94028 -0.0735,2.38125 -0.396875,2.38125 -0.312072,0 -0.396875,-0.36748 -0.396875,-1.71979 z m 2.975185,1.41414 c -0.454296,-0.4543 -0.412857,-1.41234 0.07874,-1.82032 0.283121,-0.23497 0.323632,-0.42314 0.132292,-0.61448 -0.396969,-0.39697 -0.339342,-1.37535 0.102613,-1.74214 0.542038,-0.44985 2.287252,-0.24161 2.635572,0.31449 0.21499,0.34323 0.200219,0.60498 -0.05742,1.01753 -0.296512,0.47479 -0.2783,0.63119 0.125446,1.07733 0.428891,0.47392 0.435847,0.58714 0.07566,1.23142 -0.324047,0.57965 -0.613285,0.7238 -1.580102,0.78753 -0.691533,0.0456 -1.320347,-0.0589 -1.5128,-0.25136 z m 2.538786,-0.85327 c 0.169586,-0.89419 -1.033159,-1.25822 -1.947685,-0.5895 -0.434803,0.31793 -0.453827,0.42822 -0.139251,0.80726 0.501488,0.60425 1.959898,0.45208 2.086936,-0.21776 z m -0.354596,-2.41296 c 0,-0.35643 -0.206154,-0.55831 -0.631536,-0.61846 -0.741633,-0.10486 -1.185225,0.4474 -0.765544,0.95309 0.437017,0.52657 1.39708,0.29662 1.39708,-0.33463 z m 17.594792,1.85209 c 0,-1.54341 -0.05427,-1.71979 -0.529167,-1.71979 -0.291041,0 -0.529166,-0.11907 -0.529166,-0.26459 0,-0.14552 0.139453,-0.26458 0.309895,-0.26458 0.170443,0 0.527631,-0.19705 0.79375,-0.43788 0.465403,-0.42119 0.483855,-0.34551 0.483855,1.98437 0,1.43845 -0.107462,2.42226 -0.264584,2.42226 -0.149252,0 -0.264583,-0.74965 -0.264583,-1.71979 z m 3.086806,1.5434 c -0.400358,-0.40036 -0.132108,-0.58743 0.498527,-0.34766 0.56179,0.21359 0.783533,0.14799 1.322917,-0.3914 0.889326,-0.88932 0.817039,-1.19538 -0.241753,-1.02356 -1.223888,0.19861 -2.020664,-0.27626 -2.020664,-1.20429 0,-1.47472 1.837529,-2.16292 2.910417,-1.09003 0.786306,0.7863 0.73855,2.88605 -0.0832,3.65804 -0.58386,0.54851 -1.99992,0.78523 -2.386246,0.3989 z m 2.122981,-2.6377 c 0.378274,-0.98577 -1.077019,-1.85761 -1.74907,-1.04783 -0.18119,0.21832 -0.252044,0.64078 -0.157455,0.93881 0.216619,0.6825 1.654898,0.76475 1.906525,0.10902 z m 15.692297,2.37596 c 0,-0.24097 0.613082,-1.00177 1.362404,-1.69066 0.995297,-0.91502 1.31482,-1.37653 1.185809,-1.71272 -0.140812,-0.36695 -0.390075,-0.43157 -1.230113,-0.3189 -0.579435,0.0777 -1.053517,0.0463 -1.053517,-0.0698 0,-0.55717 2.078372,-0.72935 2.592917,-0.2148 0.638076,0.63808 0.341104,1.47981 -0.873125,2.47478 -0.654844,0.5366 -1.190625,1.08035 -1.190625,1.20834 0,0.12799 0.595312,0.23271 1.322916,0.23271 0.727604,0 1.322917,0.11907 1.322917,0.26459 0,0.14925 -0.749653,0.26458 -1.719792,0.26458 -1.42429,0 -1.719791,-0.0753 -1.719791,-0.43813 z m 4.649107,0.0224 c -0.421192,-0.4212 -0.547091,-1.18611 -0.432376,-2.62694 0.177369,-2.22777 2.758743,-2.332 3.276101,-0.13229 0.199464,0.84808 -0.206336,2.657 -0.660678,2.94507 -0.568993,0.36076 -1.735768,0.26143 -2.183047,-0.18584 z m 1.912559,-0.4309 c 0.174625,-0.17462 0.3175,-0.86518 0.3175,-1.53458 0,-1.28835 -0.335409,-1.85208 -1.101941,-1.85208 -0.621334,0 -1.014725,0.79333 -1.014725,2.04635 0,1.0862 0.364914,1.65781 1.058333,1.65781 0.232833,0 0.566208,-0.14287 0.740833,-0.3175 z m 18.044586,0.40854 c 0,-0.24097 0.61308,-1.00177 1.3624,-1.69066 0.9953,-0.91502 1.31482,-1.37653 1.18581,-1.71272 -0.14081,-0.36695 -0.39007,-0.43157 -1.23011,-0.3189 -1.13668,0.15246 -1.46162,-0.225 -0.41897,-0.48669 1.00505,-0.25225 1.78568,-0.0326 2.22004,0.62481 0.38541,0.58327 0.34641,0.659 -0.96187,1.86806 -0.74995,0.69309 -1.36355,1.34226 -1.36355,1.44261 0,0.10035 0.59531,0.18245 1.32291,0.18245 0.72761,0 1.32292,0.11907 1.32292,0.26459 0,0.14925 -0.74965,0.26458 -1.71979,0.26458 -1.42429,0 -1.71979,-0.0753 -1.71979,-0.43813 z m 5.82083,-1.28166 c 0,-1.54341 -0.0543,-1.71979 -0.52917,-1.71979 -0.29104,0 -0.52916,-0.11907 -0.52916,-0.26459 0,-0.14552 0.18233,-0.26458 0.40518,-0.26458 0.22285,0 0.47371,-0.17859 0.55747,-0.39688 0.37861,-0.98663 0.62485,-0.20462 0.62485,1.98438 0,1.41111 -0.1078,2.38125 -0.26459,2.38125 -0.14925,0 -0.26458,-0.74965 -0.26458,-1.71979 z m 18.78542,1.28166 c 0,-0.24097 0.61308,-1.00177 1.3624,-1.69066 0.9953,-0.91502 1.31482,-1.37653 1.18581,-1.71272 -0.14081,-0.36695 -0.39007,-0.43157 -1.23011,-0.3189 -0.57944,0.0777 -1.05352,0.0463 -1.05352,-0.0698 0,-0.55717 2.07837,-0.72935 2.59292,-0.2148 0.63807,0.63808 0.3411,1.47981 -0.87313,2.47478 -0.65484,0.5366 -1.19062,1.08035 -1.19062,1.20834 0,0.12799 0.59531,0.23271 1.32291,0.23271 0.72761,0 1.32292,0.11907 1.32292,0.26459 0,0.14925 -0.74965,0.26458 -1.71979,0.26458 -1.42429,0 -1.71979,-0.0753 -1.71979,-0.43813 z m 4.22808,-0.0249 c -0.003,-0.25466 0.61247,-1.00954 1.36745,-1.67752 1.02937,-0.91073 1.32727,-1.33288 1.19106,-1.68783 -0.14643,-0.38158 -0.38589,-0.44595 -1.23516,-0.33204 -1.13668,0.15246 -1.46162,-0.225 -0.41897,-0.48669 2.42428,-0.60845 3.08936,1.39082 0.95096,2.85865 -0.58098,0.3988 -1.05634,0.84528 -1.05634,0.99218 0,0.14691 0.59531,0.2671 1.32292,0.2671 0.7276,0 1.32291,0.11907 1.32291,0.26459 0,0.14925 -0.74965,0.26458 -1.71979,0.26458 -1.45951,0 -1.72058,-0.0701 -1.72504,-0.46302 z m 20.25211,-0.13229 c 0.0958,-0.32743 0.71975,-1.0808 1.38656,-1.67417 0.90346,-0.80397 1.16577,-1.20032 1.02945,-1.55555 -0.14785,-0.3853 -0.3849,-0.4496 -1.23644,-0.33538 -1.04521,0.14019 -1.43842,-0.13319 -0.635,-0.44149 0.76266,-0.29266 1.91893,-0.16661 2.34071,0.25517 0.75716,0.75715 0.4553,1.46624 -1.07127,2.51655 -0.63733,0.4385 -1.15879,0.91061 -1.15879,1.04914 0,0.13853 0.59532,0.25187 1.32292,0.25187 0.72761,0 1.32292,0.11907 1.32292,0.26459 0,0.14953 -0.7556,0.26458 -1.73762,0.26458 -1.6772,0 -1.73157,-0.0207 -1.56344,-0.59531 z m 4.53578,0.41892 c -0.38827,-0.38827 -0.12429,-0.52968 0.94809,-0.50791 1.02915,0.0209 1.12448,-0.0332 1.12448,-0.63862 0,-0.53934 -0.14654,-0.67743 -0.79375,-0.74796 -1.21774,-0.13271 -1.37575,-0.51625 -0.29612,-0.71879 1.09284,-0.20501 1.2976,-0.41004 1.05109,-1.05243 -0.13581,-0.35393 -0.39381,-0.42063 -1.20578,-0.31172 -0.71664,0.0961 -1.00206,0.0444 -0.93198,-0.16892 0.0556,-0.16911 0.57829,-0.34313 1.16165,-0.38671 1.37507,-0.10274 1.90452,0.44356 1.49117,1.53864 -0.22532,0.59695 -0.20805,0.78511 0.0823,0.89652 0.52491,0.20143 0.45401,1.32021 -0.11638,1.83641 -0.47589,0.43067 -2.16948,0.60677 -2.51476,0.26149 z m 18.07461,-0.28663 c -0.003,-0.25466 0.61247,-1.00954 1.36745,-1.67752 1.02937,-0.91073 1.32727,-1.33288 1.19106,-1.68783 -0.14643,-0.38158 -0.38589,-0.44595 -1.23516,-0.33204 -1.13668,0.15246 -1.46162,-0.225 -0.41897,-0.48669 2.42428,-0.60845 3.08936,1.39082 0.95096,2.85865 -0.58098,0.3988 -1.05634,0.84528 -1.05634,0.99218 0,0.14691 0.59531,0.2671 1.32292,0.2671 0.7276,0 1.32291,0.11907 1.32291,0.26459 0,0.14925 -0.74965,0.26458 -1.71979,0.26458 -1.45951,0 -1.72058,-0.0701 -1.72504,-0.46302 z m 6.26706,0.28663 c -0.097,-0.097 -0.17639,-0.39467 -0.17639,-0.66146 0,-0.38952 -0.20846,-0.48507 -1.05834,-0.48507 -0.58208,0 -1.05833,-0.12801 -1.05833,-0.28448 0,-0.45234 2.20685,-3.1551 2.5762,-3.1551 0.22872,0 0.33422,0.45934 0.33422,1.45521 0,1.11713 0.0922,1.45521 0.39687,1.45521 0.21828,0 0.39688,0.11906 0.39688,0.26458 0,0.14552 -0.1786,0.26458 -0.39688,0.26458 -0.24694,0 -0.39687,0.24989 -0.39687,0.66146 0,0.64237 -0.25763,0.8448 -0.61736,0.48507 z m -0.12608,-1.8142 c 0.0762,-0.0762 0.0816,-0.43601 0.0121,-0.79962 -0.10314,-0.53957 -0.19612,-0.60323 -0.50573,-0.34627 -0.20864,0.17316 -0.4961,0.53298 -0.6388,0.79961 -0.21758,0.40657 -0.15833,0.48479 0.36722,0.48479 0.34467,0 0.689,-0.0623 0.76518,-0.13851 z M 86.864392,161.71087 c -0.254662,-0.0666 -0.463021,-0.28052 -0.463021,-0.47549 0,-0.28191 0.158182,-0.29479 0.772539,-0.0629 0.935113,0.35296 1.678548,-0.1135 1.555333,-0.97588 -0.06138,-0.42959 -0.299384,-0.57056 -1.071101,-0.63443 -1.158534,-0.0959 -1.351164,-0.57934 -0.230835,-0.57934 0.418745,0 0.909573,-0.1786 1.090731,-0.39688 0.695713,-0.83828 -1.007466,-1.66483 -1.799167,-0.87312 -0.246945,0.24694 -0.3175,0.21866 -0.3175,-0.12725 0,-0.56457 1.170243,-0.87492 2.087677,-0.55367 0.742533,0.26001 1.077522,1.2728 0.58417,1.76615 -0.20144,0.20144 -0.160601,0.41904 0.141249,0.75258 0.572423,0.63252 0.289525,1.64092 -0.570243,2.03266 -0.69789,0.31798 -0.975132,0.33785 -1.779832,0.12756 z m 49.344788,-0.004 c -0.32742,-0.0631 -0.59531,-0.27464 -0.59531,-0.47015 0,-0.28524 0.15698,-0.29624 0.79432,-0.0557 0.69586,0.26266 0.8676,0.22655 1.38539,-0.29124 0.86371,-0.86371 0.36756,-1.52689 -1.09202,-1.45967 l -1.08769,0.0501 v -1.30687 -1.30686 h 1.45521 c 0.80036,0 1.45521,0.11906 1.45521,0.26458 0,0.14552 -0.53578,0.26459 -1.19063,0.26459 -1.09361,0 -1.19062,0.0539 -1.19062,0.66145 0,0.57694 0.11591,0.66146 0.90714,0.66146 0.49893,0 1.09424,0.1871 1.32292,0.41578 0.43652,0.43651 0.54309,1.36578 0.21328,1.85972 -0.23173,0.34706 -1.26077,0.91444 -1.56605,0.86347 -0.11871,-0.0198 -0.48372,-0.0876 -0.81115,-0.15069 z m 24.66037,-0.46271 c -1.21263,-1.21263 -0.72238,-3.79665 0.83248,-4.3878 0.76931,-0.29249 1.95767,0.0973 1.95767,0.64208 0,0.31516 -0.14014,0.32764 -0.81681,0.0727 -0.73433,-0.27667 -0.86793,-0.24466 -1.32292,0.31688 -0.65638,0.8101 -0.64834,1.18991 0.0176,0.83349 0.28805,-0.15416 0.83336,-0.20259 1.21178,-0.10761 1.37333,0.34468 1.5396,2.37888 0.24275,2.96976 -0.99139,0.45171 -1.39612,0.38698 -2.12259,-0.33949 z m 2.10168,-0.75513 c 0.23074,-0.37864 0.1924,-0.55227 -0.18372,-0.83191 -0.47879,-0.35597 -1.3974,-0.27491 -1.65771,0.14627 -0.0772,0.12495 -0.008,0.47499 0.15432,0.77787 0.35183,0.65741 1.26056,0.60773 1.68711,-0.0922 z M 38.511787,159.92728 c 0,-1.55736 -0.05039,-1.71015 -0.595312,-1.80485 -0.572704,-0.0995 -0.56768,-0.11505 0.132291,-0.40873 0.400183,-0.1679 0.727605,-0.4343 0.727605,-0.59201 0,-0.15771 0.119062,-0.21317 0.264583,-0.12323 0.145521,0.0899 0.264583,1.16853 0.264583,2.39687 0,1.8088 -0.07544,2.23334 -0.396875,2.23334 -0.311632,0 -0.396875,-0.36543 -0.396875,-1.70139 z m 4.233334,0 c 0,-1.55716 -0.05047,-1.71022 -0.595313,-1.80553 -0.574199,-0.10045 -0.576545,-0.11213 -0.06615,-0.32918 0.291042,-0.12377 0.625781,-0.38535 0.743866,-0.58128 0.45395,-0.75324 0.711343,0.037 0.711343,2.18404 0,1.8088 -0.07544,2.23334 -0.396875,2.23334 -0.311633,0 -0.396875,-0.36543 -0.396875,-1.70139 z m 18.520833,0 c 0,-1.55716 -0.05047,-1.71022 -0.595312,-1.80553 -0.574678,-0.10054 -0.576971,-0.11207 -0.06615,-0.33274 0.291041,-0.12572 0.674208,-0.41456 0.851481,-0.64186 0.260061,-0.33345 0.32394,0.0594 0.330729,2.03412 0.005,1.46082 -0.09824,2.4474 -0.256169,2.4474 -0.148958,0 -0.264583,-0.74352 -0.264583,-1.70139 z m 2.645833,1.26961 c 0,-0.4316 1.696428,-2.21405 2.107199,-2.21405 0.318663,0 0.545863,-0.73164 0.369732,-1.19063 -0.182044,-0.4744 -1.446842,-0.52738 -1.894847,-0.0794 -0.246945,0.24694 -0.3175,0.21866 -0.3175,-0.12725 0,-0.52948 1.042726,-0.84711 1.995704,-0.60793 1.376499,0.34548 1.171039,1.8368 -0.403374,2.92787 -1.462479,1.0135 -1.378158,1.40887 0.325899,1.52808 1.301265,0.091 1.27618,0.10027 -0.396875,0.14612 -1.495271,0.041 -1.785938,-0.0213 -1.785938,-0.38284 z m 19.843751,-1.26961 c 0,-1.55716 -0.05047,-1.71022 -0.595313,-1.80553 -0.574199,-0.10045 -0.576545,-0.11213 -0.06615,-0.32918 0.291042,-0.12377 0.625781,-0.38535 0.743866,-0.58128 0.45395,-0.75324 0.711343,0.037 0.711343,2.18404 0,1.8088 -0.07544,2.23334 -0.396875,2.23334 -0.311633,0 -0.396875,-0.36543 -0.396875,-1.70139 z m 24.606252,0 c 0,-1.55716 -0.0505,-1.71022 -0.59531,-1.80553 -0.57468,-0.10054 -0.57697,-0.11207 -0.0661,-0.33274 0.29104,-0.12572 0.67421,-0.41456 0.85148,-0.64186 0.26006,-0.33345 0.32394,0.0594 0.33073,2.03412 0.005,1.46082 -0.0982,2.4474 -0.25617,2.4474 -0.14896,0 -0.26458,-0.74352 -0.26458,-1.70139 z m 4.71475,1.10608 c -0.0703,-0.49489 -0.27424,-0.60904 -1.20902,-0.67667 -0.61847,-0.0447 -1.12448,-0.21051 -1.12448,-0.36835 0,-0.46163 2.40166,-3.14078 2.66795,-2.97621 0.13336,0.0824 0.24246,0.73814 0.24246,1.45715 0,0.98566 0.0977,1.30731 0.39688,1.30731 0.21828,0 0.39687,0.11906 0.39687,0.26458 0,0.14552 -0.17859,0.26458 -0.39687,0.26458 -0.24695,0 -0.39688,0.24989 -0.39688,0.66146 0,0.82313 -0.46188,0.87609 -0.57691,0.0661 z m 0.0477,-2.05052 c 0,-0.43657 -0.11096,-0.79375 -0.24657,-0.79375 -0.13561,0 -0.50091,0.35718 -0.81177,0.79375 l -0.5652,0.79375 h 0.81177 c 0.72558,0 0.81177,-0.0843 0.81177,-0.79375 z m 19.84375,0.94444 c 0,-1.55716 -0.0505,-1.71022 -0.59531,-1.80553 -0.57468,-0.10054 -0.57697,-0.11207 -0.0662,-0.33274 0.29104,-0.12572 0.67421,-0.41456 0.85148,-0.64186 0.26006,-0.33345 0.32394,0.0594 0.33073,2.03412 0.005,1.46082 -0.0982,2.4474 -0.25617,2.4474 -0.14896,0 -0.26458,-0.74352 -0.26458,-1.70139 z m 24.60625,0.11389 c 0,-1.39502 -0.0623,-1.5875 -0.51355,-1.5875 -0.80687,0 -0.91157,-0.50341 -0.16383,-0.7877 0.37256,-0.14164 0.67738,-0.37955 0.67738,-0.52867 0,-0.14912 0.17859,-0.27113 0.39687,-0.27113 0.32338,0 0.39688,0.44097 0.39688,2.38125 0,1.94028 -0.0735,2.38125 -0.39688,2.38125 -0.30868,0 -0.39687,-0.35278 -0.39687,-1.5875 z m 22.75416,-0.0248 c 0,-1.39395 -0.0722,-1.63116 -0.53333,-1.75174 -0.51116,-0.13367 -0.5051,-0.16563 0.14593,-0.76898 0.37359,-0.34623 0.73265,-0.62951 0.79791,-0.62951 0.0653,0 0.11866,1.07156 0.11866,2.38125 0,1.41111 -0.10779,2.38125 -0.26458,2.38125 -0.14744,0 -0.26459,-0.71381 -0.26459,-1.61227 z m 3.36523,1.15982 c 0.0955,-0.24885 0.50848,-1.14371 0.91774,-1.98859 0.40927,-0.84488 0.74412,-1.59377 0.74412,-1.66422 0,-0.0704 -0.60234,-0.12807 -1.33853,-0.12807 -0.82498,0 -1.2758,-0.10152 -1.17501,-0.26459 0.20428,-0.33054 3.30729,-0.35291 3.30729,-0.0239 0,0.57196 -2.01441,4.51959 -2.3068,4.52063 -0.19563,6.9e-4 -0.25415,-0.17679 -0.14881,-0.45131 z M 64.195987,146.29731 c -1.104501,-0.27767 -0.964036,-0.77808 0.175503,-0.62524 0.726454,0.0974 1.115166,0.0188 1.359072,-0.27514 0.699052,-0.84231 -0.397809,-2.05535 -1.326465,-1.46697 -0.787045,0.49866 -1.021476,0.24926 -1.021476,-1.08671 v -1.32291 h 1.455208 c 0.800365,0 1.455208,0.11906 1.455208,0.26458 0,0.14552 -0.535781,0.26458 -1.190625,0.26458 -1.093611,0 -1.190625,0.0539 -1.190625,0.66146 0,0.58951 0.109362,0.66146 1.005417,0.66146 1.182948,0 1.640417,0.37225 1.640417,1.33483 0,1.11388 -1.157027,1.89289 -2.361634,1.59006 z m 95.164243,0.0677 c -0.25467,-0.0666 -0.46303,-0.28338 -0.46303,-0.48184 0,-0.26191 0.24424,-0.32121 0.8908,-0.21629 0.72682,0.11795 0.97034,0.031 1.32292,-0.47238 0.62595,-0.89367 0.55115,-0.99397 -0.62368,-0.83639 -1.26272,0.16936 -1.85462,-0.22692 -1.85462,-1.24169 0,-0.88837 0.73793,-1.59611 1.66417,-1.59611 1.8036,0 2.46176,2.79394 1.00202,4.25368 -0.75862,0.75861 -1.00722,0.83441 -1.93858,0.59102 z m 1.74038,-2.7943 c 0.41861,-0.30609 0.42048,-0.3765 0.025,-0.9411 -0.48399,-0.69099 -1.35841,-0.69441 -1.78919,-0.007 -0.5794,0.92458 0.78992,1.66049 1.76417,0.9481 z m 23.00398,2.65635 c -0.70654,-0.341 -0.95109,-1.01028 -0.92925,-2.54316 0.0193,-1.35741 0.63454,-2.16359 1.65103,-2.16359 1.09805,0 1.64856,0.80919 1.64856,2.42321 0,1.17618 -0.10787,1.48083 -0.70674,1.99596 -0.7895,0.67909 -0.83582,0.6871 -1.6636,0.28758 z m 1.49847,-0.84974 c 0.47014,-0.56648 0.24741,-2.81528 -0.31367,-3.1671 -0.79291,-0.49719 -1.37766,0.1154 -1.47054,1.54056 -0.0869,1.33309 0.25004,2.00286 1.00752,2.00286 0.25541,0 0.60492,-0.16934 0.77669,-0.37632 z m -142.593356,0.24403 c 0,-0.59531 -0.105833,-0.66146 -1.058333,-0.66146 -0.625239,0 -1.058334,-0.12534 -1.058334,-0.30629 0,-0.39608 2.108344,-3.13329 2.413426,-3.13329 0.127824,0 0.232408,0.60646 0.232408,1.34768 0,1.12517 0.08737,1.37054 0.529166,1.48607 0.291042,0.0761 0.529167,0.22967 0.529167,0.34125 0,0.11157 -0.238125,0.26513 -0.529167,0.34124 -0.316601,0.0828 -0.529166,0.3609 -0.529166,0.69232 0,0.30466 -0.119063,0.55394 -0.264584,0.55394 -0.145521,0 -0.264583,-0.29766 -0.264583,-0.66146 z m -0.0013,-2.18281 -0.0013,-0.99219 -0.650629,0.79375 c -0.824949,1.00641 -0.826218,1.19062 -0.0082,1.19062 0.588196,0 0.661312,-0.10989 0.660144,-0.99218 z m 43.138704,2.26521 c -0.732371,-0.78611 -0.727871,-2.54966 0.0089,-3.4863 0.426109,-0.54171 0.780049,-0.69714 1.5875,-0.69714 0.700237,0 1.03913,0.11746 1.03913,0.36018 0,0.23702 -0.216047,0.31889 -0.63181,0.23941 -0.799465,-0.15283 -1.643633,0.29014 -1.817109,0.95351 -0.118851,0.45449 0.0012,0.50706 1.076855,0.4714 1.036688,-0.0344 1.25766,0.0523 1.538007,0.60298 0.266725,0.52395 0.255911,0.78131 -0.05837,1.38906 -0.497302,0.96168 -1.921904,1.04835 -2.743104,0.1669 z m 2.242682,-0.49197 c 0.359936,-1.13406 -1.174264,-1.75754 -1.813749,-0.73709 -0.199676,0.31863 -0.179849,0.55701 0.07152,0.8599 0.502827,0.60587 1.534024,0.53318 1.742229,-0.12281 z m 22.44656,0.34342 c 0.56901,-1.1145 1.4942,-3.1943 1.4942,-3.35892 0,-0.0807 -0.53578,-0.14681 -1.19063,-0.14681 -0.65484,0 -1.19062,-0.11906 -1.19062,-0.26458 0,-0.14699 0.70555,-0.26458 1.5875,-0.26458 0.92147,0 1.5875,0.11531 1.5875,0.27484 0,0.65207 -1.95946,4.48766 -2.29257,4.48766 -0.31163,0 -0.31093,-0.10954 0.005,-0.72761 z m 23.77211,0.41011 c -0.44392,-0.44393 -0.39579,-1.40482 0.0906,-1.80848 0.28312,-0.23497 0.32363,-0.42314 0.13229,-0.61448 -0.39696,-0.39697 -0.33934,-1.37535 0.10262,-1.74214 0.54204,-0.44985 2.28725,-0.2416 2.63557,0.31449 0.21499,0.34324 0.20022,0.60499 -0.0574,1.01754 -0.29253,0.46842 -0.28187,0.62725 0.0681,1.01393 0.54702,0.60446 0.52442,1.1618 -0.0689,1.69875 -0.56529,0.51158 -2.43412,0.58908 -2.90282,0.12039 z m 2.61668,-0.63718 c 0.30004,-0.36152 0.27742,-0.48087 -0.15046,-0.79375 -0.27698,-0.20253 -0.69622,-0.36824 -0.93163,-0.36824 -0.23542,0 -0.65465,0.16571 -0.93163,0.36824 -0.42788,0.31288 -0.45051,0.43223 -0.15047,0.79375 0.19423,0.23403 0.68117,0.42551 1.0821,0.42551 0.40092,0 0.88787,-0.19148 1.08209,-0.42551 z m -0.34755,-2.26695 c 0.39642,-0.39642 -0.0605,-1.01171 -0.75132,-1.01171 -0.57964,0 -0.87784,0.41384 -0.67643,0.93871 0.17754,0.46265 0.99624,0.50451 1.42775,0.073 z m 43.71546,1.50183 c 0,-1.5434 -0.0543,-1.71979 -0.52917,-1.71979 -0.29104,0 -0.52917,-0.11906 -0.52917,-0.26458 0,-0.14552 0.17268,-0.26458 0.38373,-0.26458 0.21105,0 0.49978,-0.20737 0.64162,-0.46082 0.43404,-0.77559 0.64561,-0.16909 0.76071,2.18071 0.0941,1.92162 0.0492,2.24886 -0.30878,2.24886 -0.33923,0 -0.41894,-0.32722 -0.41894,-1.7198 z m -19.95607,-14.12284 c -0.28917,-0.46788 0.43697,-1.58927 1.47309,-2.27495 1.63881,-1.08451 1.14577,-2.29575 -0.74297,-1.82523 -0.67743,0.16877 -0.71492,0.14417 -0.38698,-0.25389 0.5686,-0.69016 2.05185,-0.57257 2.56,0.20295 0.53804,0.82117 0.25651,1.38733 -1.18752,2.38804 -0.59078,0.40941 -1.07415,0.84073 -1.07415,0.95848 0,0.11776 0.56555,0.25039 1.25678,0.29475 0.69122,0.0444 1.25677,0.1997 1.25677,0.34522 0,0.346 -2.94787,0.49981 -3.15502,0.16463 z m 22.45444,-0.14299 c -0.68776,-0.5029 -0.36543,-0.7644 0.52496,-0.42588 0.87432,0.33242 1.73916,-0.0492 1.73916,-0.76738 0,-0.54046 -0.49478,-0.81275 -1.47685,-0.81275 -0.3519,0 -0.63982,-0.11906 -0.63982,-0.26458 0,-0.14552 0.28915,-0.26459 0.64256,-0.26459 0.35341,0 0.83816,-0.1956 1.07723,-0.43467 0.39558,-0.39558 0.3972,-0.47215 0.018,-0.8514 -0.34908,-0.34908 -0.55331,-0.36517 -1.25822,-0.0991 -0.46282,0.17469 -0.90869,0.25043 -0.99082,0.1683 -0.26956,-0.26955 0.86101,-0.8998 1.61411,-0.8998 0.92461,0 1.72023,1.05325 1.32674,1.75637 -0.18229,0.32574 -0.14397,0.6367 0.12999,1.05482 0.90678,1.38392 -1.28938,2.87723 -2.70699,1.84065 z m -45.14982,-1.53205 c -0.0713,-1.48632 -0.13921,-1.65688 -0.71364,-1.79159 l -0.63487,-0.14888 0.70101,-0.31941 c 0.38556,-0.17567 0.70102,-0.44102 0.70102,-0.58966 0,-0.14864 0.11906,-0.27025 0.26458,-0.27025 0.15679,0 0.26459,0.97014 0.26459,2.38125 0,2.69093 -0.46105,3.27529 -0.58269,0.73854 z m -33.76555,-12.11309 c -0.48315,-0.11433 -1.09479,-0.1513 -1.35921,-0.0822 -0.84589,0.22121 -0.88704,-0.45736 -0.0887,-1.4619 1.18105,-1.486 1.23534,-1.63457 0.73181,-2.00276 -0.39734,-0.29054 -0.41092,-0.41752 -0.10421,-0.97458 0.28966,-0.5261 0.36957,-0.56003 0.44738,-0.18992 0.0521,0.24782 0.3252,0.52373 0.60688,0.61314 0.69895,0.22184 0.64621,0.54296 -0.28159,1.71439 -0.43656,0.55121 -0.79375,1.06717 -0.79375,1.14659 0,0.0794 0.44649,0.18134 0.99219,0.2265 0.79698,0.066 1.00882,0.19924 1.07674,0.67743 0.0911,0.64174 0.0841,0.64366 -1.22758,0.33327 z m -71.161641,-0.41442 c -0.493444,-0.34562 -0.588038,-0.66028 -0.588038,-1.95606 0,-1.15636 -0.103889,-1.58406 -0.413645,-1.70292 -0.673629,-0.2585 -0.156259,-0.69164 0.826134,-0.69164 0.63288,0 0.910427,0.12099 0.910427,0.39688 0,0.21828 -0.119062,0.39687 -0.264583,0.39687 -0.145521,0 -0.264583,0.11254 -0.264583,0.25009 0,0.13755 0.564476,0.28638 1.254391,0.33073 0.945173,0.0608 1.276065,0.19478 1.342317,0.54366 0.05356,0.28203 -0.07479,0.46302 -0.32835,0.46302 -0.228951,0 -0.416275,-0.11906 -0.416275,-0.26458 0,-0.14552 -0.423906,-0.26458 -0.942013,-0.26458 -0.926759,0 -0.940684,0.0161 -0.859896,0.99218 0.07187,0.86843 0.175328,1.00287 0.829399,1.07781 0.573796,0.0657 0.78059,-0.0417 0.890755,-0.46302 0.181484,-0.694 0.875505,-0.72133 0.875505,-0.0345 0,0.60377 -0.943702,1.33792 -1.719792,1.33792 -0.299043,0 -0.808332,-0.18534 -1.131753,-0.41188 z m 3.228862,0.11565 c -0.06675,-0.108 -3.61e-4,-0.27115 0.147534,-0.36256 0.147894,-0.0914 0.268899,-0.80937 0.268899,-1.59547 0,-1.12962 0.121408,-1.5424 0.579057,-1.96876 1.029808,-0.95942 2.597832,-0.58248 2.983931,0.71729 0.133495,0.4494 0.06912,0.59532 -0.262637,0.59532 -0.241711,0 -0.503421,-0.24454 -0.581578,-0.54341 -0.105612,-0.40386 -0.320069,-0.52276 -0.835126,-0.46302 -0.640341,0.0743 -0.69921,0.1891 -0.77442,1.51055 -0.05418,0.95188 0.03175,1.5001 0.25692,1.63926 0.186076,0.115 0.261048,0.28637 0.166605,0.38081 -0.249357,0.24936 -1.806267,0.32124 -1.949185,0.09 z m 18.466971,-0.11565 c -0.483855,-0.3389 -0.588038,-0.66427 -0.588038,-1.83646 0,-0.78353 -0.119062,-1.49818 -0.264583,-1.58812 -0.629133,-0.38882 -0.245406,-0.92604 0.661458,-0.92604 0.646759,0 0.926042,0.1197 0.926042,0.39688 0,0.21828 -0.119063,0.39687 -0.264584,0.39687 -0.14552,0 -0.264583,0.11254 -0.264583,0.25009 0,0.13755 0.564476,0.28638 1.254391,0.33073 0.945173,0.0608 1.276066,0.19478 1.342317,0.54366 0.05356,0.28203 -0.07479,0.46302 -0.328349,0.46302 -0.228952,0 -0.416276,-0.11906 -0.416276,-0.26458 0,-0.14552 -0.423906,-0.26458 -0.942013,-0.26458 -0.926758,0 -0.940683,0.0161 -0.859896,0.99218 0.07188,0.86843 0.175328,1.00287 0.8294,1.07781 0.573795,0.0657 0.78059,-0.0417 0.890754,-0.46302 0.181484,-0.694 0.875505,-0.72133 0.875505,-0.0345 0,0.60377 -0.943701,1.33792 -1.719791,1.33792 -0.299044,0 -0.808333,-0.18534 -1.131754,-0.41188 z m 3.435815,0.23288 c -0.218832,-0.0877 -0.254268,-0.24675 -0.09851,-0.44204 0.133793,-0.16775 0.298866,-1.00745 0.366828,-1.866 0.088,-1.11162 0.26421,-1.66385 0.612103,-1.91823 0.612448,-0.44783 1.73936,-0.4608 2.302903,-0.0265 0.617524,0.47591 0.698017,1.34934 0.135013,1.46502 -0.326354,0.0671 -0.463021,-0.072 -0.463021,-0.471 0,-0.46152 -0.134465,-0.55067 -0.727604,-0.48243 -0.688795,0.0793 -0.731837,0.16487 -0.806954,1.60508 -0.05235,1.00377 0.02266,1.52135 0.220486,1.52135 0.16491,0 0.253255,0.13975 0.196323,0.31054 -0.112344,0.33703 -1.186627,0.52512 -1.737565,0.30421 z m 4.467165,-0.0334 c -0.222798,-0.0743 -0.230922,-0.20018 -0.02864,-0.44392 0.206952,-0.24936 0.174565,-0.38162 -0.121249,-0.49513 -0.520774,-0.19984 -0.526129,-0.96524 -0.0068,-0.96524 0.275938,0 0.396875,-0.27762 0.396875,-0.91104 0,-1.00689 0.738385,-1.7348 1.759764,-1.7348 1.300771,0 1.916161,1.7358 0.874145,2.46566 -0.455538,0.31907 -0.476454,0.4038 -0.132291,0.53586 0.224839,0.0863 0.408799,0.33172 0.408799,0.54542 0,0.29705 -0.233634,0.35615 -0.992188,0.25097 -0.72657,-0.10074 -0.887992,-0.0647 -0.602975,0.13454 0.214067,0.14966 0.293484,0.36788 0.176483,0.48494 -0.227483,0.22758 -1.219388,0.3036 -1.731969,0.13274 z m 2.48919,-3.09492 c 0,-0.34732 -0.204571,-0.55822 -0.595312,-0.61371 -0.488336,-0.0694 -0.595313,0.0409 -0.595313,0.61371 0,0.57279 0.106977,0.68307 0.595313,0.61372 0.390741,-0.0555 0.595312,-0.26639 0.595312,-0.61372 z m 12.340642,2.88861 c -1.14071,-0.47963 -1.10393,-1.16882 0.06238,-1.16882 1.075052,0 1.555607,-0.50216 1.440578,-1.50535 -0.06629,-0.57816 -0.239452,-0.76149 -0.778286,-0.82399 -0.515057,-0.0597 -0.729515,0.0592 -0.835126,0.46302 -0.161266,0.61668 -0.985394,0.74785 -0.985394,0.15684 0,-0.60692 1.087288,-1.46552 1.855853,-1.46552 0.840783,0 1.848314,0.99392 1.848314,1.82335 0,0.32923 -0.333693,0.9323 -0.741539,1.34015 -0.626268,0.62626 -0.679569,0.78063 -0.342885,0.993 0.685722,0.43254 -0.572767,0.58724 -1.523893,0.18732 z m 3.080466,0.0891 c -0.269283,-0.19004 -0.271179,-0.26771 -0.0091,-0.37404 0.21169,-0.0859 0.330729,-0.69224 0.330729,-1.68464 0,-1.30226 0.09413,-1.61638 0.588038,-1.96233 0.323421,-0.22653 0.83271,-0.41188 1.131754,-0.41188 0.776089,0 1.719791,0.73416 1.719791,1.33792 0,0.68685 -0.694021,0.65952 -0.875505,-0.0345 -0.110164,-0.42127 -0.316959,-0.52877 -0.890754,-0.46302 -0.704187,0.0807 -0.751947,0.16723 -0.828164,1.50088 -0.06387,1.11757 0.01961,1.49146 0.396875,1.77752 0.262766,0.19924 0.358694,0.37597 0.213173,0.39272 -0.145521,0.0168 -0.528366,0.0599 -0.850767,0.0958 -0.322402,0.0359 -0.739121,-0.0426 -0.926042,-0.17448 z m 4.364149,-0.0296 c -0.09212,-0.14905 -0.01899,-0.32049 0.1625,-0.38099 0.218375,-0.0728 0.144729,-0.23976 -0.217738,-0.49364 -0.698391,-0.48917 -0.709851,-0.98692 -0.01856,-0.80614 0.461232,0.12061 0.529167,0.008 0.529167,-0.87629 0,-1.67205 1.254511,-2.36761 2.586961,-1.43433 0.716032,0.50153 0.755443,1.2728 0.0986,1.92964 -0.430136,0.43014 -0.440545,0.52028 -0.08591,0.74397 0.673918,0.4251 0.111763,0.85736 -0.950855,0.73115 -0.543036,-0.0645 -0.838511,-0.0467 -0.65661,0.0395 0.181901,0.0862 0.330729,0.25237 0.330729,0.36924 0,0.32632 -1.588355,0.48524 -1.778285,0.17792 z m 2.572035,-2.94806 c 0,-0.52917 -0.132291,-0.66146 -0.661458,-0.66146 -0.529167,0 -0.661458,0.13229 -0.661458,0.66146 0,0.52917 0.132291,0.66146 0.661458,0.66146 0.529167,0 0.661458,-0.13229 0.661458,-0.66146 z m 19.470586,2.96047 c -0.29929,-0.21884 -0.527,-0.82902 -0.61711,-1.65364 -0.0785,-0.71876 -0.30459,-1.40204 -0.50231,-1.51841 -0.41891,-0.24656 -0.48835,-1.24363 -0.0866,-1.24363 0.15009,0 0.34142,0.1786 0.42518,0.39688 0.0838,0.21828 0.37174,0.39687 0.63995,0.39687 0.40808,0 0.50061,0.24826 0.56701,1.52136 0.0743,1.42523 0.12114,1.52135 0.7408,1.52135 0.48452,0 0.68408,-0.15925 0.74601,-0.59531 0.10995,-0.77415 1.10608,-0.83372 1.10608,-0.0662 0,1.26215 -1.91396,2.04871 -3.019,1.24068 z m 5.35354,0.0236 c -0.27458,-0.19306 -0.27877,-0.27518 -0.0194,-0.38041 0.66562,-0.27008 0.34408,-0.88385 -0.46302,-0.88385 -0.88621,0 -1.85208,-0.80187 -1.85208,-1.53761 0,-0.7651 0.99215,-1.63739 1.86239,-1.63739 0.95297,0 1.84177,0.82544 1.84177,1.71049 0,0.38136 0.21973,0.76974 0.52917,0.93535 0.29104,0.15576 0.52917,0.41196 0.52917,0.56933 0,0.15737 -0.23813,0.22386 -0.52917,0.14775 -0.58169,-0.15211 -0.76542,0.47736 -0.19844,0.67985 0.1819,0.065 0.25195,0.20328 0.15566,0.30737 -0.27877,0.30133 -1.47266,0.35866 -1.85601,0.0891 z m 0.31129,-2.73704 c 0,-0.87331 -0.0542,-0.93738 -0.7276,-0.8599 -1.31418,0.15122 -1.07355,1.78776 0.26458,1.79946 0.35518,0.003 0.46302,-0.21572 0.46302,-0.93956 z m 10.31602,2.76422 c -0.29703,-0.20603 -0.31266,-0.30645 -0.0634,-0.40759 0.21169,-0.0859 0.33072,-0.69224 0.33072,-1.68464 0,-1.30226 0.0941,-1.61638 0.58804,-1.96233 0.72567,-0.50828 1.79467,-0.53033 2.45079,-0.0506 0.36098,0.26396 0.52578,0.7987 0.61154,1.98438 0.0991,1.37044 0.19481,1.62305 0.61477,1.62305 0.43072,0 0.49736,-0.20975 0.49736,-1.56545 0,-0.96543 -0.11936,-1.60524 -0.31142,-1.66926 -0.56349,-0.18783 0.062,-0.73404 0.84059,-0.73404 0.92529,0 1.24165,0.39999 0.60088,0.7597 -0.39352,0.22091 -0.40501,0.28502 -0.0717,0.40016 0.21828,0.0754 0.68553,0.17272 1.03834,0.21623 0.38161,0.0471 0.82931,0.40067 1.10514,0.87287 0.62171,1.06429 0.60834,1.19063 -0.12603,1.19063 -0.48977,0 -0.66424,-0.17924 -0.7909,-0.81253 -0.13132,-0.65662 -0.27728,-0.79623 -0.76067,-0.7276 -0.777,0.11031 -0.96526,1.37131 -0.31242,2.09269 0.25175,0.27817 0.4095,0.5138 0.35057,0.52362 -0.0589,0.01 -0.97621,0.0485 -2.03839,0.086 -1.81746,0.0641 -2.52186,-0.1196 -1.90954,-0.49804 0.14789,-0.0914 0.2689,-0.87354 0.2689,-1.73807 0,-1.57015 -8.8e-4,-1.57189 -0.79375,-1.57189 -0.79071,0 -0.79375,0.006 -0.79375,1.53459 0,0.84402 0.14287,1.67745 0.3175,1.85208 0.17462,0.17462 0.20439,0.32635 0.0661,0.33716 -0.13824,0.0108 -0.4907,0.0652 -0.78325,0.12095 -0.29254,0.0557 -0.70926,-0.0217 -0.92604,-0.17209 z m 8.91751,0.12682 c -0.10157,-0.10158 -0.0126,-0.37484 0.19772,-0.60724 0.21782,-0.24069 0.41734,-1.10171 0.46359,-2.00061 0.0747,-1.45196 0.13935,-1.59843 0.80881,-1.83282 1.09221,-0.38239 2.16252,0.0788 2.26653,0.97676 0.0597,0.5153 -0.0352,0.72274 -0.33073,0.72274 -0.2425,0 -0.41445,-0.22684 -0.41445,-0.54674 0,-0.44036 -0.14158,-0.53045 -0.7276,-0.46303 -0.68176,0.0785 -0.73274,0.17384 -0.80901,1.51389 -0.0542,0.95188 0.0317,1.5001 0.25693,1.63926 0.18607,0.115 0.26369,0.28372 0.17249,0.37492 -0.26016,0.26015 -1.67916,0.42799 -1.88428,0.22287 z m 4.26265,-0.15711 c -0.272,-0.19158 -0.27505,-0.27154 -0.0144,-0.3773 0.20736,-0.0841 0.33073,-0.66879 0.33073,-1.56735 0,-1.68644 0.59845,-2.4915 1.85208,-2.4915 0.90939,0 1.92714,0.87009 1.79859,1.53762 -0.12664,0.65755 -0.85875,0.54391 -0.95709,-0.14855 -0.0657,-0.4627 -0.25727,-0.59532 -0.8599,-0.59532 -0.68511,0 -0.77535,0.0924 -0.77535,0.79375 0,0.72714 0.0759,0.79375 0.90441,0.79375 1.16554,0 1.74143,0.22811 1.74143,0.68977 0,0.42304 -0.68156,0.49957 -0.92604,0.10398 -0.0899,-0.14552 -0.51369,-0.26458 -0.94166,-0.26458 -0.60175,0 -0.77814,0.11995 -0.77814,0.52917 0,0.29104 0.12899,0.52916 0.28664,0.52916 0.15764,0 0.23891,0.14315 0.18059,0.3181 -0.12869,0.38608 -1.3636,0.48618 -1.84188,0.1493 z m 14.98867,-0.32308 c -0.79339,-0.79339 -0.8212,-1.44209 -0.10106,-2.35759 l 0.54837,-0.69714 h -0.57042 c -0.34016,0 -0.52485,-0.13351 -0.45752,-0.33073 0.13713,-0.40172 2.15142,-0.37989 3.8662,0.0419 0.0542,0.0133 -0.0463,0.19879 -0.22337,0.41212 -0.18361,0.22124 -0.71914,0.37295 -1.24651,0.35313 -1.07287,-0.0403 -1.44191,0.37389 -1.34343,1.50795 0.0561,0.64565 0.20297,0.80921 0.78731,0.87658 0.5854,0.0675 0.75041,-0.0448 0.89147,-0.60684 0.18413,-0.73364 0.71629,-0.77456 0.85382,-0.0656 0.11791,0.6078 -0.88956,1.51569 -1.68194,1.51569 -0.37042,0 -0.96573,-0.29224 -1.32292,-0.64943 z m 3.38465,0.27651 c -0.0875,-0.14152 -0.0189,-0.30402 0.15241,-0.36112 0.18774,-0.0626 0.31142,-0.67299 0.31142,-1.53696 0,-1.68644 0.59845,-2.4915 1.85209,-2.4915 0.91889,0 1.85208,0.80966 1.85208,1.6069 0,0.76687 -0.8997,0.55706 -1.01263,-0.23614 -0.0693,-0.48697 -0.22756,-0.59191 -0.79375,-0.52646 -0.5455,0.0631 -0.72596,0.24461 -0.78942,0.79419 -0.0781,0.67679 -0.0187,0.71652 1.18825,0.79375 0.96023,0.0615 1.29197,0.19438 1.35843,0.54433 0.0536,0.28203 -0.0748,0.46302 -0.32835,0.46302 -0.22895,0 -0.41628,-0.11907 -0.41628,-0.26459 0,-0.14552 -0.41672,-0.26458 -0.92604,-0.26458 -0.73623,0 -0.92604,0.10394 -0.92604,0.50712 0,0.27891 0.14014,0.55383 0.31143,0.61092 0.17128,0.0571 0.22299,0.24691 0.11489,0.42181 -0.22711,0.36748 -1.71246,0.32122 -1.94849,-0.0607 z m 5.16019,0.16492 c -0.67023,-0.0845 -1.06647,-0.58575 -0.46302,-0.58575 0.14552,0 0.26458,-0.65484 0.26458,-1.45521 0,-1.10243 0.12828,-1.58349 0.52917,-1.98437 0.79799,-0.79799 2.02175,-0.68674 2.91041,0.26458 0.40782,0.43657 0.8723,0.79375 1.0322,0.79375 0.1599,0 0.29072,0.25201 0.29072,0.56003 0,0.42976 -0.12308,0.52784 -0.52917,0.42164 -0.38312,-0.10019 -0.52916,-0.008 -0.52916,0.33362 0,0.67984 -0.64647,1.11742 -1.50536,1.01894 -0.67536,-0.0774 -0.7436,-0.1813 -0.7436,-1.13167 0,-0.89814 0.0937,-1.06853 0.66146,-1.20256 0.93458,-0.22062 0.82117,-0.64606 -0.19844,-0.74436 l -0.8599,-0.0829 v 1.55134 c 0,0.85324 0.12707,1.67842 0.28237,1.83372 0.35946,0.35945 -0.13417,0.53629 -1.14226,0.40921 z m 2.71198,-1.77637 c 0,-0.41158 -0.14993,-0.66146 -0.39688,-0.66146 -0.24694,0 -0.39687,0.24988 -0.39687,0.66146 0,0.41157 0.14993,0.66146 0.39687,0.66146 0.24695,0 0.39688,-0.24989 0.39688,-0.66146 z m 14.41979,1.71471 c -0.48512,-0.18583 -0.49063,-0.21844 -0.0661,-0.3917 0.67951,-0.27737 0.6064,-1.0073 -0.0791,-0.78973 -0.9046,0.28711 -1.83913,-0.52475 -1.83913,-1.59771 0,-0.50597 -0.11906,-0.91995 -0.26458,-0.91995 -0.14552,0 -0.26458,-0.17859 -0.26458,-0.39687 0,-0.27589 0.27755,-0.39688 0.91042,-0.39688 1.02566,0 1.43232,0.37636 0.79317,0.73404 -0.66189,0.37042 -0.40286,1.75757 0.34811,1.86421 0.77953,0.11069 1.09016,-0.65088 0.45494,-1.11536 -0.59913,-0.4381 -0.15188,-0.75227 0.82005,-0.57602 0.83536,0.15148 1.17294,0.44064 0.7082,0.60661 -0.19553,0.0698 -0.33073,0.58681 -0.33073,1.26465 0,0.67784 0.1352,1.19481 0.33073,1.26464 0.18191,0.065 0.25755,0.19769 0.1681,0.29493 -0.26885,0.29228 -1.12599,0.37099 -1.68945,0.15514 z m 2.12307,0.0154 c -0.0947,-0.15327 0.0139,-0.35011 0.24141,-0.43741 0.30919,-0.11865 0.41364,-0.54532 0.41364,-1.68962 0,-1.14429 -0.10445,-1.57097 -0.41364,-1.68961 -0.67363,-0.2585 -0.15626,-0.69164 0.82613,-0.69164 0.63288,0 0.91043,0.12099 0.91043,0.39688 0,0.21828 -0.11906,0.39687 -0.26458,0.39687 -0.14552,0 -0.26459,0.10792 -0.26459,0.23982 0,0.13189 0.23792,0.17759 0.5287,0.10155 0.85433,-0.22341 1.89912,0.62357 1.80238,1.46114 -0.11001,0.95253 -0.84955,0.93976 -0.95959,-0.0166 -0.0657,-0.57149 -0.22187,-0.7276 -0.7276,-0.7276 -0.57253,0 -0.64389,0.11484 -0.64389,1.03628 0,0.58964 0.14255,1.08719 0.33073,1.1544 0.48929,0.17475 0.094,0.47607 -0.81177,0.61882 -0.43754,0.069 -0.87303,-3e-5 -0.96776,-0.15331 z m 4.22693,-5.6e-4 c -0.48577,-0.19974 -0.49119,-0.23309 -0.0661,-0.40658 0.3665,-0.1496 0.46302,-0.51092 0.46302,-1.73319 0,-1.29579 0.0946,-1.61045 0.58804,-1.95607 0.32342,-0.22653 0.85921,-0.41188 1.19063,-0.41188 0.68229,0 1.66092,0.85742 1.66092,1.45521 0,0.59438 -0.73227,0.47822 -0.93093,-0.14767 -0.12773,-0.40245 -0.35678,-0.52328 -0.87772,-0.46302 -0.65498,0.0757 -0.71067,0.18322 -0.7865,1.51757 -0.0655,1.15201 0.0107,1.4877 0.38514,1.69724 0.43794,0.24508 0.43481,0.27369 -0.0507,0.46359 -0.65666,0.25685 -0.92035,0.2543 -1.57577,-0.0152 z M 42.745121,116.12034 c 0,-0.14552 0.119062,-0.26459 0.264583,-0.26459 0.145521,0 0.264583,-0.18661 0.264583,-0.4147 0,-0.2976 -0.153081,-0.36612 -0.542121,-0.24264 -0.904602,0.28711 -1.839129,-0.52475 -1.839129,-1.59771 0,-0.50597 -0.119062,-0.91995 -0.264583,-0.91995 -0.145521,0 -0.264583,-0.17859 -0.264583,-0.39687 0,-0.27589 0.277547,-0.39688 0.910426,-0.39688 1.025652,0 1.432317,0.37636 0.793163,0.73404 -0.661891,0.37042 -0.402859,1.75757 0.348114,1.86421 0.639012,0.0907 1.213377,-0.76023 0.641731,-0.95078 -0.171701,-0.0572 -0.312184,-0.28762 -0.312184,-0.51196 0,-0.31717 0.186991,-0.3705 0.840603,-0.23978 0.961441,0.19229 1.294909,0.44566 0.813042,0.61775 -0.395645,0.1413 -0.457984,2.45527 -0.06614,2.45527 0.14552,0 0.264583,0.11907 0.264583,0.26459 0,0.14552 -0.416719,0.26458 -0.926042,0.26458 -0.509323,0 -0.926041,-0.11906 -0.926041,-0.26458 z m -4.586112,-14.72848 c -0.304438,-0.30443 -0.19268,-0.61736 0.220487,-0.61736 0.271491,0 0.396684,-0.27166 0.396271,-0.859893 -5.5e-4,-0.78354 -0.07541,-0.86262 -0.843037,-0.89057 -1.237298,-0.045 -2.169758,-1.21054 -1.970527,-2.463 0.221077,-1.38978 1.209828,-2.13654 2.828922,-2.13654 h 1.308162 v 1.82123 c 0,1.51236 0.07852,1.84159 0.463021,1.94131 0.868783,0.22533 1.124479,-0.0721 1.124479,-1.30802 0,-0.84237 -0.139365,-1.30746 -0.462605,-1.54382 -0.698893,-0.51104 -0.261474,-0.71594 1.761597,-0.82518 1.663219,-0.0898 1.875749,-0.043 2.253103,0.4957 0.238002,0.3398 0.416655,1.13686 0.416655,1.8589 0,0.69523 0.119063,1.26405 0.264584,1.26405 0.14552,0 0.264583,0.17859 0.264583,0.39687 0,0.32978 -0.514468,0.39688 -3.042708,0.39688 h -3.042709 v 0.7806 c 0,0.448463 0.184674,0.883953 0.434022,1.023503 0.238712,0.13359 0.350748,0.37763 0.248969,0.54231 -0.197289,0.31922 -2.327188,0.41911 -2.623269,0.12303 z m 0.564419,-4.673163 c 0.0716,-1.35397 0.02731,-1.50045 -0.453711,-1.50045 -1.009229,0 -1.400324,1.54281 -0.659288,2.60079 0.648419,0.92574 1.025571,0.55288 1.112999,-1.10034 z m 5.190678,1.51395 c 0.302727,-0.11616 0.418515,-0.51877 0.418515,-1.4552 0,-1.20453 -0.04603,-1.29461 -0.661459,-1.29461 -0.61432,0 -0.661458,0.0911 -0.661458,1.27882 0,1.54796 0.134357,1.76649 0.904402,1.47099 z m -13.003752,0.66795 c -1.158508,-0.34587 -2.188685,-1.89167 -2.186407,-3.28075 0.0019,-1.18285 0.693081,-2.430849 1.635963,-2.954069 0.826575,-0.45868 2.719178,-0.444464 3.631422,0.02728 0.833976,0.431266 1.610039,1.839744 1.610039,2.922074 0,0.95642 -0.742592,2.46938 -1.428613,2.91066 -0.78512,0.50501 -2.259055,0.67435 -3.262404,0.37481 z m 2.443664,-1.10307 c 1.628004,-1.40035 0.81024,-4.47154 -1.236544,-4.643961 -0.772519,-0.06508 -1.059452,0.0546 -1.512843,0.630994 -1.00075,1.272247 -0.589224,3.473617 0.792529,4.239467 0.88079,0.48818 1.164115,0.45539 1.956858,-0.2265 z m 14.438595,0.95065 c -0.433813,-0.30385 -0.549576,-0.66822 -0.549576,-1.72982 0,-0.96928 -0.129319,-1.44401 -0.463021,-1.69976 -0.404798,-0.31025 -0.413115,-0.38827 -0.06615,-0.62043 0.218281,-0.14606 0.664765,-0.26739 0.992187,-0.26962 0.548344,-0.004 0.595632,0.11598 0.599364,1.51731 0.0046,1.73773 0.244088,2.27516 0.953695,2.14041 0.720682,-0.13684 0.86031,-2.2375 0.183165,-2.75566 -0.417714,-0.31964 -0.428348,-0.40108 -0.08258,-0.63244 0.218281,-0.14606 0.664766,-0.26739 0.992187,-0.26962 0.557996,-0.004 0.595313,0.10608 0.595313,1.75272 0,1.36715 0.102599,1.83179 0.462605,2.09504 0.632849,0.46275 0.452885,0.55254 -1.434384,0.71565 -1.187856,0.10267 -1.783106,0.0362 -2.182812,-0.24378 z m 5.469695,0.0821 c -0.334467,-0.2623 -0.463021,-0.74298 -0.463021,-1.73131 0,-0.9721 -0.114896,-1.41229 -0.396875,-1.52049 -0.90051,-0.34556 -0.245072,-1.15402 0.935593,-1.15402 0.427536,0 0.50616,0.24477 0.573673,1.78594 0.07056,1.6108 0.13539,1.79407 0.661076,1.86885 0.545541,0.0776 0.587873,-0.0324 0.661458,-1.71914 l 0.07862,-1.80205 1.375718,-0.0612 c 1.799244,-0.0801 2.196157,0.31158 2.196157,2.16719 0,1.45207 0.333557,1.88919 1.190625,1.5603 0.589766,-0.22631 0.539249,-2.44678 -0.06573,-2.88915 -0.698893,-0.51104 -0.261474,-0.71594 1.761596,-0.82518 1.66322,-0.0898 1.87575,-0.043 2.253103,0.4957 0.236237,0.33727 0.416656,1.13545 0.416656,1.84329 0,0.68664 0.119063,1.32201 0.264583,1.41195 0.811506,0.50154 -0.08405,0.66146 -3.704166,0.66146 -2.549957,0 -3.96875,-0.0976 -3.96875,-0.27289 0,-0.15009 0.178593,-0.34142 0.396875,-0.42518 0.24221,-0.0929 0.396875,-0.49371 0.396875,-1.02839 0,-1.21891 -0.237152,-1.71312 -0.822058,-1.71312 -0.440053,0 -0.500859,0.20878 -0.500859,1.71979 0,1.63392 -0.03138,1.71979 -0.628385,1.71979 -0.345612,0 -0.97069,0.061 -1.389063,0.1355 -0.439733,0.0783 -0.956034,-0.0177 -1.223698,-0.2276 z m 9.803411,-1.9609 c 0.07677,-1.33109 0.05295,-1.38658 -0.595313,-1.38658 -0.630849,0 -0.675285,0.0842 -0.675285,1.27882 0,1.38812 0.150782,1.69169 0.780848,1.57212 0.295034,-0.056 0.43217,-0.46604 0.48975,-1.46436 z m 3.51231,1.87876 c -0.433812,-0.30385 -0.549575,-0.66822 -0.549575,-1.72982 0,-0.96928 -0.129319,-1.44401 -0.463021,-1.69976 -0.404798,-0.31025 -0.413115,-0.38827 -0.06615,-0.62043 0.218282,-0.14606 0.664766,-0.26739 0.992188,-0.26962 0.548344,-0.004 0.595632,0.11598 0.599364,1.51731 0.0046,1.73773 0.244087,2.27516 0.953694,2.14041 0.720548,-0.13682 0.861725,-2.24318 0.183582,-2.73905 -0.580591,-0.42454 -0.438441,-0.60027 0.663902,-0.82074 l 0.840604,-0.16812 v 1.78984 c 0,1.39863 0.101113,1.86378 0.462605,2.12811 0.632849,0.46275 0.452884,0.55254 -1.434384,0.71565 -1.187856,0.10267 -1.783106,0.0362 -2.182813,-0.24378 z m 104.601391,0.0634 c -2.09844,-0.91372 -2.28627,-5.506328 -0.2826,-6.909755 0.73178,-0.512563 2.02079,-0.492329 2.78613,0.04373 1.93498,1.355315 1.69596,5.98927 -0.35718,6.92474 -0.86314,0.39327 -1.12475,0.38612 -2.14635,-0.0587 z m 1.73691,-0.94544 c 0.70396,-0.37675 1.14807,-1.94621 0.94116,-3.326 -0.20226,-1.348808 -0.70916,-1.9677 -1.61163,-1.9677 -1.62551,0 -2.27813,3.66219 -0.89848,5.04184 0.58157,0.58157 0.86719,0.62742 1.56895,0.25186 z m 10.91785,0.99101 c -0.6373,-0.20444 -0.85989,-0.43165 -0.85989,-0.87774 0,-0.59538 0.0115,-0.59738 1.06108,-0.1851 1.26635,0.49744 2.21066,0.19849 2.68896,-0.85127 0.25235,-0.55384 0.2196,-0.75608 -0.19697,-1.21638 -0.50491,-0.55792 -0.93282,-0.573 -2.82547,-0.0995 l -0.7276,0.18201 v -2.158213 -2.158211 l 2.17988,0.07685 c 1.80434,0.06361 2.1947,0.154364 2.26585,0.526803 0.0723,0.37876 -0.17838,0.462491 -1.58458,0.529167 l -1.67053,0.07921 -0.0827,0.856585 c -0.0796,0.824344 -0.0525,0.850554 0.71787,0.696474 3.25604,-0.651204 4.5117,3.28329 1.45538,4.56031 -1.0032,0.41916 -1.22525,0.42274 -2.42132,0.0391 z m -20.70364,-0.31436 c 0,-0.94198 0.63124,-1.80831 2.2372,-3.07038 0.95235,-0.74843 1.73155,-1.564218 1.73155,-1.812872 0,-1.059869 -1.37276,-1.417982 -2.64584,-0.690223 -0.89515,0.511716 -1.05833,0.489237 -1.05833,-0.145793 0,-1.072514 2.75518,-1.706325 3.90783,-0.898972 1.65586,1.159811 1.29331,2.48088 -1.16162,4.23268 -0.92833,0.66245 -1.68788,1.31749 -1.68788,1.45566 0,0.13817 0.89297,0.25122 1.98438,0.25122 1.80799,0 1.98437,0.047 1.98437,0.52916 0,0.49389 -0.17638,0.52917 -2.64583,0.52917 -2.12211,0 -2.64583,-0.0752 -2.64583,-0.37965 z m 13.22916,-0.16266 c 0,-0.98738 0.72591,-1.96884 2.21446,-2.99405 0.80864,-0.55693 1.544,-1.24495 1.63413,-1.528939 0.3696,-1.164515 -1.12187,-1.668599 -2.62206,-0.886196 -0.95778,0.49952 -0.96194,0.49897 -0.96194,-0.127128 0,-0.310856 0.31608,-0.685823 0.78061,-0.926041 1.831,-0.946847 3.98189,-0.105266 3.98189,1.557997 0,0.962177 -0.39101,1.427177 -2.64584,3.146457 l -1.4552,1.10958 2.18281,0.0768 c 1.96526,0.0692 2.18281,0.12852 2.18281,0.59531 0,0.48034 -0.19459,0.51847 -2.64583,0.51847 -2.49081,0 -2.64584,-0.0318 -2.64584,-0.54231 z"
       id="path28" /></g></svg>
