<?xml version="1.0" encoding="UTF-8"?>
<!DOCTYPE svg PUBLIC "-//W3C//DTD SVG 1.1//EN" "http://www.w3.org/Graphics/SVG/1.1/DTD/svg11.dtd">
<svg xmlns="http://www.w3.org/2000/svg" version="1.1" width="744px" height="540px" style="shape-rendering:geometricPrecision; text-rendering:geometricPrecision; image-rendering:optimizeQuality; fill-rule:evenodd; clip-rule:evenodd" xmlns:xlink="http://www.w3.org/1999/xlink">
<g><path style="opacity:1" fill="#141414" d="M 604.5,8.5 C 617.632,8.4171 621.465,14.4171 616,26.5C 613.203,30.2988 610.036,33.7988 606.5,37C 611.351,38.2577 615.685,37.4244 619.5,34.5C 619.833,34.8333 620.167,35.1667 620.5,35.5C 619.618,38.7906 618.952,42.124 618.5,45.5C 611.137,45.8306 603.803,45.4973 596.5,44.5C 602.829,37.8395 607.495,30.1728 610.5,21.5C 607.611,14.446 603.611,13.7793 598.5,19.5C 597.337,17.4503 597.504,15.4503 599,13.5C 600.73,11.5981 602.563,9.93142 604.5,8.5 Z"/></g>
<g><path style="opacity:1" fill="#161616" d="M 632.5,8.5 C 640.633,7.79847 645.467,11.4651 647,19.5C 647.87,25.9172 647.536,32.2506 646,38.5C 641.566,47.2525 635.566,48.5858 628,42.5C 623.445,33.6703 622.779,24.6703 626,15.5C 627.694,12.6424 629.861,10.309 632.5,8.5 Z M 634.5,11.5 C 635.822,11.33 636.989,11.6634 638,12.5C 638.667,22.1667 638.667,31.8333 638,41.5C 637.047,43.5922 635.714,43.9255 634,42.5C 631.93,32.0836 632.097,21.7503 634.5,11.5 Z"/></g>
<g><path style="opacity:1" fill="#141414" d="M 658.5,8.5 C 671.632,8.4171 675.465,14.4171 670,26.5C 667.203,30.2988 664.036,33.7988 660.5,37C 665.351,38.2577 669.685,37.4244 673.5,34.5C 673.833,34.8333 674.167,35.1667 674.5,35.5C 673.618,38.7906 672.952,42.124 672.5,45.5C 665.137,45.8306 657.803,45.4973 650.5,44.5C 656.829,37.8395 661.495,30.1728 664.5,21.5C 661.611,14.446 657.611,13.7793 652.5,19.5C 651.337,17.4503 651.504,15.4503 653,13.5C 654.73,11.5981 656.563,9.93142 658.5,8.5 Z"/></g>
<g><path style="opacity:1" fill="#131313" d="M 17.5,8.5 C 33.6371,7.80312 41.1371,15.4698 40,31.5C 36.8987,42.9761 29.3987,47.8094 17.5,46C 6.7525,42.3496 2.2525,34.8496 4,23.5C 5.57327,15.7647 10.0733,10.7647 17.5,8.5 Z M 19.5,11.5 C 25.9081,11.0731 29.4081,14.0731 30,20.5C 30.8045,26.5692 30.4712,32.5692 29,38.5C 26.0509,43.6899 22.0509,44.6899 17,41.5C 13.3275,33.7678 12.6608,25.7678 15,17.5C 15.8041,14.8541 17.3041,12.8541 19.5,11.5 Z"/></g>
<g><path style="opacity:1" fill="#171717" d="M 684.5,8.5 C 690.167,8.5 695.833,8.5 701.5,8.5C 701.613,11.0488 700.946,13.3821 699.5,15.5C 694.868,16.3283 690.202,16.8283 685.5,17C 685.043,17.414 684.709,17.914 684.5,18.5C 690.582,19.4573 695.749,22.1239 700,26.5C 703.306,38.3699 698.806,45.0365 686.5,46.5C 683.953,46.5576 681.62,45.8909 679.5,44.5C 677.448,39.3831 679.115,37.5498 684.5,39C 687.384,41.9584 690.717,42.7917 694.5,41.5C 697.293,37.4806 696.626,33.9806 692.5,31C 687.633,29.2082 682.633,27.8749 677.5,27C 680.131,20.9382 682.465,14.7716 684.5,8.5 Z"/></g>
<g><path style="opacity:1" fill="#1b1b1b" d="M 52.5,19.5 C 56.5286,19.1486 60.362,19.8152 64,21.5C 65.5671,20.1439 67.4004,19.4772 69.5,19.5C 69.5,27.1667 69.5,34.8333 69.5,42.5C 71.1667,42.5 72.8333,42.5 74.5,42.5C 74.5,43.5 74.5,44.5 74.5,45.5C 72.8333,45.5 71.1667,45.5 69.5,45.5C 69.3354,48.5184 69.502,51.5184 70,54.5C 70.9246,55.0465 71.7579,55.7132 72.5,56.5C 67.5,57.8333 62.5,57.8333 57.5,56.5C 58.2421,55.7132 59.0754,55.0465 60,54.5C 60.6667,51.1667 60.6667,47.8333 60,44.5C 51.7504,48.2067 46.7504,45.54 45,36.5C 43.7416,29.0891 46.2416,23.4225 52.5,19.5 Z M 55.5,22.5 C 57.1439,22.2865 58.6439,22.6198 60,23.5C 60.6667,29.1667 60.6667,34.8333 60,40.5C 57.4781,43.3264 55.4781,42.9931 54,39.5C 53.0516,33.6547 53.5516,27.988 55.5,22.5 Z"/></g>
<g><path style="opacity:1" fill="#151515" d="M 85.5,20.5 C 85.7107,22.4241 86.3774,22.7574 87.5,21.5C 91.5651,18.5786 95.3984,18.9119 99,22.5C 100.255,29.0594 100.922,35.726 101,42.5C 101.833,43.3333 102.667,44.1667 103.5,45C 98.798,45.8283 94.1313,45.6616 89.5,44.5C 90.5217,43.646 91.3551,42.646 92,41.5C 92.6667,36.5 92.6667,31.5 92,26.5C 90.6883,24.3424 89.0217,24.0091 87,25.5C 86.7489,27.433 86.2489,29.2663 85.5,31C 85.9131,35.652 86.9131,40.152 88.5,44.5C 84.1667,45.8333 79.8333,45.8333 75.5,44.5C 75.8076,43.6919 76.3076,43.0253 77,42.5C 77.1667,39.1667 77.3333,35.8333 77.5,32.5C 77.4209,28.6423 76.7542,24.9756 75.5,21.5C 78.7683,20.513 82.1016,20.1796 85.5,20.5 Z"/></g>
<g><path style="opacity:1" fill="#0e0e0e" d="M 164.5,19.5 C 168.684,18.7036 171.85,20.037 174,23.5C 174.333,29.8333 174.667,36.1667 175,42.5C 175.925,43.0465 176.758,43.7132 177.5,44.5C 173.167,45.8333 168.833,45.8333 164.5,44.5C 164.808,43.6919 165.308,43.0253 166,42.5C 166.667,36.8333 166.667,31.1667 166,25.5C 164.062,24.1398 162.396,24.4732 161,26.5C 160.333,31.8333 160.333,37.1667 161,42.5C 161.925,43.0465 162.758,43.7132 163.5,44.5C 161.667,44.8333 159.833,45.1667 158,45.5C 155.698,45.3996 153.698,44.733 152,43.5C 148.264,47.0116 144.264,47.3449 140,44.5C 138.74,37.6062 138.074,30.6062 138,23.5C 137.075,22.9535 136.242,22.2868 135.5,21.5C 139.107,20.5108 142.774,20.1774 146.5,20.5C 146.334,27.175 146.5,33.8417 147,40.5C 148.938,41.8602 150.604,41.5268 152,39.5C 152.667,34.1667 152.667,28.8333 152,23.5C 151.167,22.6667 150.333,21.8333 149.5,21C 151.333,20.8333 153.167,20.6667 155,20.5C 157.302,20.6004 159.302,21.267 161,22.5C 162.145,21.3636 163.312,20.3636 164.5,19.5 Z"/></g>
<g><path style="opacity:1" fill="#0f0f0f" d="M 104.5,20.5 C 108.167,20.5 111.833,20.5 115.5,20.5C 115.334,27.175 115.5,33.8417 116,40.5C 117.938,41.8602 119.604,41.5268 121,39.5C 121.167,36.6667 121.333,33.8333 121.5,31C 121.405,27.636 120.738,24.4694 119.5,21.5C 122.768,20.513 126.102,20.1796 129.5,20.5C 129.334,27.5079 129.5,34.5079 130,41.5C 130.645,42.646 131.478,43.646 132.5,44.5C 130.667,44.8333 128.833,45.1667 127,45.5C 124.698,45.3996 122.698,44.733 121,43.5C 116.161,47.8273 111.827,47.494 108,42.5C 107.667,36.5 107.333,30.5 107,24.5C 105.915,23.2644 105.082,21.9311 104.5,20.5 Z"/></g>
<g><path style="opacity:1" fill="#151515" d="M 190.5,20.5 C 190.711,22.4241 191.377,22.7574 192.5,21.5C 196.565,18.5786 200.398,18.9119 204,22.5C 205.255,29.0594 205.922,35.726 206,42.5C 206.833,43.3333 207.667,44.1667 208.5,45C 203.798,45.8283 199.131,45.6616 194.5,44.5C 195.522,43.646 196.355,42.646 197,41.5C 197.667,36.5 197.667,31.5 197,26.5C 196,22.8333 194.333,22.5 192,25.5C 191.833,28.5 191.667,31.5 191.5,34.5C 191.589,38.0284 192.256,41.3618 193.5,44.5C 189.167,45.8333 184.833,45.8333 180.5,44.5C 180.808,43.6919 181.308,43.0253 182,42.5C 182.167,39.1667 182.333,35.8333 182.5,32.5C 182.421,28.6423 181.754,24.9756 180.5,21.5C 183.768,20.513 187.102,20.1796 190.5,20.5 Z"/></g>
<g><path style="opacity:1" fill="#0f0f0f" d="M 209.5,20.5 C 213.167,20.5 216.833,20.5 220.5,20.5C 220.334,27.175 220.5,33.8417 221,40.5C 222.938,41.8602 224.604,41.5268 226,39.5C 226.167,36.6667 226.333,33.8333 226.5,31C 226.405,27.636 225.738,24.4694 224.5,21.5C 227.768,20.513 231.102,20.1796 234.5,20.5C 234.334,27.5079 234.5,34.5079 235,41.5C 235.645,42.646 236.478,43.646 237.5,44.5C 235.667,44.8333 233.833,45.1667 232,45.5C 229.698,45.3996 227.698,44.733 226,43.5C 221.161,47.8273 216.827,47.494 213,42.5C 212.667,36.5 212.333,30.5 212,24.5C 210.915,23.2644 210.082,21.9311 209.5,20.5 Z"/></g>
<g><path style="opacity:1" fill="#8c8c8c" d="M 85.5,20.5 C 86.1667,20.8333 86.8333,21.1667 87.5,21.5C 86.3774,22.7574 85.7107,22.4241 85.5,20.5 Z"/></g>
<g><path style="opacity:1" fill="#8b8b8b" d="M 190.5,20.5 C 191.167,20.8333 191.833,21.1667 192.5,21.5C 191.377,22.7574 190.711,22.4241 190.5,20.5 Z"/></g>
<g><path style="opacity:1" fill="#202020" d="M 17.5,117.5 C 19.8333,116.167 22.1667,116.167 24.5,117.5C 23.7193,123.279 20.3859,126.279 14.5,126.5C 8.596,126.311 5.42933,123.311 5,117.5C 4.50074,112.511 4.33407,107.511 4.5,102.5C 6.83333,101.167 9.16667,101.167 11.5,102.5C 11.5,104.5 11.5,106.5 11.5,108.5C 15.5138,108.334 19.5138,108.501 23.5,109C 25.0368,110.11 25.7035,111.61 25.5,113.5C 20.5291,113.456 15.8624,112.456 11.5,110.5C 11.3345,114.514 11.5012,118.514 12,122.5C 13.439,124.014 14.939,124.347 16.5,123.5C 17.4656,121.604 17.7989,119.604 17.5,117.5 Z"/></g>
<g><path style="opacity:1" fill="#212121" d="M 49.5,111.5 C 47.1667,112.833 44.8333,112.833 42.5,111.5C 42.6641,108.813 42.4974,106.146 42,103.5C 40.5421,102.253 39.0421,102.253 37.5,103.5C 36.3358,110.142 36.1691,116.808 37,123.5C 37.7504,124.126 38.5838,124.626 39.5,125C 35.1667,125.667 30.8333,125.667 26.5,125C 27.4162,124.626 28.2496,124.126 29,123.5C 29.1815,117.103 29.8482,110.77 31,104.5C 36.6993,99.254 42.3659,99.254 48,104.5C 48.977,106.74 49.477,109.073 49.5,111.5 Z"/></g>
<g><path style="opacity:1" fill="#212121" d="M 125.5,117.5 C 127.833,116.167 130.167,116.167 132.5,117.5C 131.719,123.279 128.386,126.279 122.5,126.5C 116.596,126.311 113.429,123.311 113,117.5C 112.501,112.511 112.334,107.511 112.5,102.5C 114.833,101.167 117.167,101.167 119.5,102.5C 119.5,104.5 119.5,106.5 119.5,108.5C 123.514,108.334 127.514,108.501 131.5,109C 133.037,110.11 133.703,111.61 133.5,113.5C 128.529,113.456 123.862,112.456 119.5,110.5C 119.334,114.514 119.501,118.514 120,122.5C 121.439,124.014 122.939,124.347 124.5,123.5C 125.466,121.604 125.799,119.604 125.5,117.5 Z"/></g>
<g><path style="opacity:1" fill="#141414" d="M 172.5,100.5 C 182.012,99.293 186.179,103.293 185,112.5C 181.449,116.255 177.283,117.588 172.5,116.5C 172.5,117.5 172.5,118.5 172.5,119.5C 176.514,119.334 180.514,119.501 184.5,120C 185.973,120.71 186.64,121.876 186.5,123.5C 182.599,123.755 178.932,123.088 175.5,121.5C 171.765,122.267 171.765,123.434 175.5,125C 171.167,125.667 166.833,125.667 162.5,125C 164.291,124.585 165.624,123.585 166.5,122C 163.666,121.955 161.166,121.121 159,119.5C 158.399,118.035 158.899,117.035 160.5,116.5C 161.425,117.641 162.259,117.641 163,116.5C 163.833,117.5 164.667,118.5 165.5,119.5C 166.328,114.868 166.828,110.202 167,105.5C 168.352,103.251 170.185,101.584 172.5,100.5 Z M 174.5,102.5 C 178.158,102.935 179.825,105.101 179.5,109C 179.553,113.806 177.386,115.306 173,113.5C 172.013,109.525 172.513,105.859 174.5,102.5 Z"/></g>
<g><path style="opacity:1" fill="#1b1b1b" d="M 227.5,100.5 C 237.503,100.002 241.67,104.668 240,114.5C 238.641,116.692 236.808,118.359 234.5,119.5C 236.429,122.225 236.929,125.225 236,128.5C 232.261,125.712 228.095,123.546 223.5,122C 222.231,119.861 222.231,117.695 223.5,115.5C 230.406,119.603 234.072,117.77 234.5,110C 234.643,106.443 233.143,103.943 230,102.5C 228.739,102.759 227.739,103.426 227,104.5C 226.272,107.23 226.438,109.897 227.5,112.5C 219.025,114.261 217.191,111.261 222,103.5C 223.876,102.391 225.709,101.391 227.5,100.5 Z"/></g>
<g><path style="opacity:1" fill="#202020" d="M 265.5,111.5 C 263.167,112.833 260.833,112.833 258.5,111.5C 258.664,108.813 258.497,106.146 258,103.5C 256.542,102.253 255.042,102.253 253.5,103.5C 252.336,110.142 252.169,116.808 253,123.5C 253.75,124.126 254.584,124.626 255.5,125C 251.167,125.667 246.833,125.667 242.5,125C 243.416,124.626 244.25,124.126 245,123.5C 245.182,117.103 245.848,110.77 247,104.5C 252.699,99.254 258.366,99.254 264,104.5C 264.977,106.74 265.477,109.073 265.5,111.5 Z"/></g>
<g><path style="opacity:1" fill="#131313" d="M 279.5,100.5 C 289.012,99.293 293.179,103.293 292,112.5C 288.613,116.039 284.447,117.372 279.5,116.5C 279.5,117.5 279.5,118.5 279.5,119.5C 283.514,119.334 287.514,119.501 291.5,120C 292.973,120.71 293.64,121.876 293.5,123.5C 289.599,123.755 285.932,123.088 282.5,121.5C 278.765,122.267 278.765,123.434 282.5,125C 278.167,125.667 273.833,125.667 269.5,125C 271.291,124.585 272.624,123.585 273.5,122C 270.666,121.955 268.166,121.121 266,119.5C 265.437,118.275 265.77,117.275 267,116.5C 268,117.833 269,117.833 270,116.5C 270.833,117.5 271.667,118.5 272.5,119.5C 273.328,114.868 273.828,110.202 274,105.5C 275.352,103.251 277.185,101.584 279.5,100.5 Z M 281.5,102.5 C 285.158,102.935 286.825,105.101 286.5,109C 286.553,113.806 284.386,115.306 280,113.5C 279.013,109.525 279.513,105.859 281.5,102.5 Z"/></g>
<g><path style="opacity:1" fill="#191919" d="M 366.5,115.5 C 368.948,114.527 371.615,114.194 374.5,114.5C 373.846,124.246 368.513,127.746 358.5,125C 357,124.167 355.833,123 355,121.5C 354.501,117.179 354.334,112.846 354.5,108.5C 352.173,108.335 350.007,107.669 348,106.5C 346.967,103.783 347.8,101.949 350.5,101C 353.5,100.333 356.5,100.333 359.5,101C 360.451,101.718 360.617,102.551 360,103.5C 357.482,101.972 355.315,102.306 353.5,104.5C 353.709,105.086 354.043,105.586 354.5,106C 356.473,106.495 358.473,106.662 360.5,106.5C 360.334,111.844 360.501,117.177 361,122.5C 362.925,124.973 364.758,124.973 366.5,122.5C 367.822,120.135 367.822,117.802 366.5,115.5 Z"/></g>
<g><path style="opacity:1" fill="#191919" d="M 382.5,100.5 C 393.545,99.5633 397.878,104.563 395.5,115.5C 398.962,115.61 401.962,116.776 404.5,119C 401.728,121.139 399.062,120.973 396.5,118.5C 394.906,121.813 395.906,123.98 399.5,125C 395.167,125.667 390.833,125.667 386.5,125C 389.145,123.713 390.145,121.547 389.5,118.5C 379.287,118.804 375.12,114.137 377,104.5C 378.812,103.023 380.645,101.69 382.5,100.5 Z M 384.5,102.5 C 386.39,102.297 387.89,102.963 389,104.5C 389.667,108.5 389.667,112.5 389,116.5C 382.85,115.327 380.85,111.66 383,105.5C 383.513,104.473 384.013,103.473 384.5,102.5 Z"/></g>
<g><path style="opacity:1" fill="#222222" d="M 442.5,100.5 C 447.447,99.6276 451.613,100.961 455,104.5C 456.204,110.753 456.871,117.086 457,123.5C 457.75,124.126 458.584,124.626 459.5,125C 450.833,125.667 442.167,125.667 433.5,125C 434.416,124.626 435.25,124.126 436,123.5C 436.182,117.103 436.848,110.77 438,104.5C 439.397,102.93 440.897,101.596 442.5,100.5 Z M 445.5,102.5 C 446.822,102.33 447.989,102.663 449,103.5C 449.667,110.167 449.667,116.833 449,123.5C 447.333,124.833 445.667,124.833 444,123.5C 442.932,116.226 443.432,109.226 445.5,102.5 Z"/></g>
<g><path style="opacity:1" fill="#111111" d="M 460.5,102.5 C 464.311,101.355 468.311,101.188 472.5,102C 469.855,103.287 468.855,105.453 469.5,108.5C 473.584,108.043 477.417,108.71 481,110.5C 481.667,111.167 481.667,111.833 481,112.5C 477.162,113.932 473.662,113.266 470.5,110.5C 469.339,114.795 469.172,119.129 470,123.5C 470.75,124.126 471.584,124.626 472.5,125C 468.5,125.667 464.5,125.667 460.5,125C 461.416,124.626 462.25,124.126 463,123.5C 463.667,116.833 463.667,110.167 463,103.5C 462.329,102.748 461.496,102.414 460.5,102.5 Z"/></g>
<g><path style="opacity:1" fill="#212121" d="M 503.5,111.5 C 501.167,112.833 498.833,112.833 496.5,111.5C 496.664,108.813 496.497,106.146 496,103.5C 494.542,102.253 493.042,102.253 491.5,103.5C 490.336,110.142 490.169,116.808 491,123.5C 491.75,124.126 492.584,124.626 493.5,125C 489.167,125.667 484.833,125.667 480.5,125C 481.416,124.626 482.25,124.126 483,123.5C 483.182,117.103 483.848,110.77 485,104.5C 490.667,99.1667 496.333,99.1667 502,104.5C 502.977,106.74 503.477,109.073 503.5,111.5 Z"/></g>
<g><path style="opacity:1" fill="#1f1f1f" d="M 528.5,111.5 C 526.167,112.833 523.833,112.833 521.5,111.5C 521.664,108.813 521.497,106.146 521,103.5C 518.391,102.091 516.558,102.758 515.5,105.5C 514.839,107.134 514.506,108.967 514.5,111C 514.547,113.295 515.213,115.129 516.5,116.5C 520.497,115.691 524.497,115.858 528.5,117C 529.337,118.011 529.67,119.178 529.5,120.5C 524.778,120.152 520.111,119.485 515.5,118.5C 514.855,121.547 515.855,123.713 518.5,125C 514.167,125.667 509.833,125.667 505.5,125C 506.416,124.626 507.25,124.126 508,123.5C 508.182,117.103 508.848,110.77 510,104.5C 515.667,99.1667 521.333,99.1667 527,104.5C 527.977,106.74 528.477,109.073 528.5,111.5 Z"/></g>
<g><path style="opacity:1" fill="#1c1c1c" d="M 552.5,101.5 C 558.659,101.034 564.659,101.701 570.5,103.5C 571.652,106.106 571.818,108.773 571,111.5C 567.056,106.393 563.389,106.393 560,111.5C 559.333,115.167 559.333,118.833 560,122.5C 564.334,124.905 566.834,123.405 567.5,118C 566.899,116.395 565.899,115.062 564.5,114C 567.482,113.502 570.482,113.335 573.5,113.5C 574.622,121.547 571.122,125.88 563,126.5C 554.779,125.406 551.445,120.739 553,112.5C 554.587,109.244 557.087,107.077 560.5,106C 557.497,104.79 554.83,103.29 552.5,101.5 Z"/></g>
<g><path style="opacity:1" fill="#222222" d="M 598.5,111.5 C 596.167,112.833 593.833,112.833 591.5,111.5C 591.664,108.813 591.497,106.146 591,103.5C 589.542,102.253 588.042,102.253 586.5,103.5C 585.167,107.833 585.167,112.167 586.5,116.5C 588.602,116.521 590.768,116.187 593,115.5C 594.734,116.249 596.567,116.749 598.5,117C 599.337,118.011 599.67,119.178 599.5,120.5C 594.778,120.152 590.111,119.485 585.5,118.5C 584.855,121.547 585.855,123.713 588.5,125C 584.167,125.667 579.833,125.667 575.5,125C 576.416,124.626 577.25,124.126 578,123.5C 578.182,117.103 578.848,110.77 580,104.5C 585.667,99.1667 591.333,99.1667 597,104.5C 597.977,106.74 598.477,109.073 598.5,111.5 Z"/></g>
<g><path style="opacity:1" fill="#1c1c1c" d="M 635.5,114.5 C 634.448,116.256 632.781,116.923 630.5,116.5C 629.574,119.057 627.908,121.89 625.5,125C 621.171,126.151 617.338,125.318 614,122.5C 612.502,115.497 615.335,112.497 622.5,113.5C 624.271,104.43 620.938,101.263 612.5,104C 611.357,110.418 611.19,116.918 612,123.5C 612.75,124.126 613.584,124.626 614.5,125C 610.167,125.667 605.833,125.667 601.5,125C 602.416,124.626 603.25,124.126 604,123.5C 604.138,117.419 604.804,111.419 606,105.5C 613.374,98.841 620.707,98.841 628,105.5C 629.079,108.063 629.579,110.729 629.5,113.5C 631.621,113.325 633.621,113.659 635.5,114.5 Z M 621.5,115.5 C 622.468,117.607 622.802,119.941 622.5,122.5C 622.103,123.525 621.437,123.692 620.5,123C 619.903,121.938 619.57,120.772 619.5,119.5C 619.34,117.645 620.007,116.312 621.5,115.5 Z"/></g>
<g><path style="opacity:1" fill="#111111" d="M 680.5,102.5 C 684.311,101.355 688.311,101.188 692.5,102C 689.616,103.037 688.95,104.871 690.5,107.5C 694.555,106.39 698.055,107.39 701,110.5C 701.798,113.543 702.965,116.376 704.5,119C 701.167,119.667 697.833,119.667 694.5,119C 695.894,118.044 696.561,116.711 696.5,115C 696.057,113.175 695.723,111.342 695.5,109.5C 693.533,109.261 691.699,109.594 690,110.5C 689.333,114.833 689.333,119.167 690,123.5C 690.75,124.126 691.584,124.626 692.5,125C 688.5,125.667 684.5,125.667 680.5,125C 681.667,124.5 682.5,123.667 683,122.5C 683.667,116.167 683.667,109.833 683,103.5C 682.329,102.748 681.496,102.414 680.5,102.5 Z"/></g>
<g><path style="opacity:1" fill="#212121" d="M 727.5,111.5 C 725.167,112.833 722.833,112.833 720.5,111.5C 720.664,108.813 720.497,106.146 720,103.5C 718.542,102.253 717.042,102.253 715.5,103.5C 714.336,110.142 714.169,116.808 715,123.5C 715.75,124.126 716.584,124.626 717.5,125C 713.167,125.667 708.833,125.667 704.5,125C 705.416,124.626 706.25,124.126 707,123.5C 707.182,117.103 707.848,110.77 709,104.5C 714.667,99.1667 720.333,99.1667 726,104.5C 726.977,106.74 727.477,109.073 727.5,111.5 Z"/></g>
<g><path style="opacity:1" fill="#202020" d="M 157.5,111.5 C 155.167,112.833 152.833,112.833 150.5,111.5C 150.664,108.813 150.497,106.146 150,103.5C 148.542,102.253 147.042,102.253 145.5,103.5C 144.336,110.142 144.169,116.808 145,123.5C 145.75,124.126 146.584,124.626 147.5,125C 143.167,125.667 138.833,125.667 134.5,125C 135.416,124.626 136.25,124.126 137,123.5C 137.182,117.103 137.848,110.77 139,104.5C 144.667,99.1667 150.333,99.1667 156,104.5C 156.977,106.74 157.477,109.073 157.5,111.5 Z"/></g>
<g><path style="opacity:1" fill="#343434" d="M 675.5,111.5 C 675.03,110.307 674.03,109.64 672.5,109.5C 671.274,109.52 670.274,109.853 669.5,110.5C 668.711,110.217 668.044,109.717 667.5,109C 670.833,108.333 674.167,108.333 677.5,109C 676.934,109.995 676.267,110.828 675.5,111.5 Z"/></g>
<g><path style="opacity:1" fill="#1b1b1b" d="M 51.5,102.5 C 56.7881,101.19 60.1214,101.19 61.5,102.5C 61.1975,107.43 61.5308,112.263 62.5,117C 64.1124,117.72 65.6124,117.554 67,116.5C 67.9439,113.653 67.4439,111.153 65.5,109C 68.8333,108.333 72.1667,108.333 75.5,109C 73.5223,112.933 73.0223,117.1 74,121.5C 74.5,123.333 75.6667,124.5 77.5,125C 73.1667,125.667 68.8333,125.667 64.5,125C 67.0352,124.072 68.0352,122.238 67.5,119.5C 63.7432,119.929 60.2432,119.263 57,117.5C 55.0597,113.057 54.0597,108.39 54,103.5C 53.3292,102.748 52.4959,102.414 51.5,102.5 Z"/></g>
<g><path style="opacity:1" fill="#191919" d="M 669.5,110.5 C 670.274,109.853 671.274,109.52 672.5,109.5C 674.03,109.64 675.03,110.307 675.5,111.5C 675.335,115.182 675.501,118.848 676,122.5C 676.903,123.701 678.069,124.535 679.5,125C 675.167,125.667 670.833,125.667 666.5,125C 669.035,124.072 670.035,122.238 669.5,119.5C 666.813,119.664 664.146,119.497 661.5,119C 659.667,118.5 658.5,117.333 658,115.5C 656.898,111.584 656.231,107.584 656,103.5C 655.25,102.874 654.416,102.374 653.5,102C 658.978,101.111 662.311,101.278 663.5,102.5C 663.334,107.179 663.501,111.845 664,116.5C 665.667,117.833 667.333,117.833 669,116.5C 669.495,114.527 669.662,112.527 669.5,110.5 Z"/></g>
<g><path style="opacity:1" fill="#777777" d="M 515.5,105.5 C 515.244,109.269 515.577,112.936 516.5,116.5C 515.213,115.129 514.547,113.295 514.5,111C 514.506,108.967 514.839,107.134 515.5,105.5 Z"/></g>
<g><path style="opacity:1" fill="#727272" d="M 42.5,111.5 C 44.8333,112.833 47.1667,112.833 49.5,111.5C 50.0431,111.56 50.3764,111.893 50.5,112.5C 47.5,113.833 44.5,113.833 41.5,112.5C 41.6236,111.893 41.9569,111.56 42.5,111.5 Z"/></g>
<g><path style="opacity:1" fill="#737373" d="M 150.5,111.5 C 152.833,112.833 155.167,112.833 157.5,111.5C 158.043,111.56 158.376,111.893 158.5,112.5C 155.5,113.833 152.5,113.833 149.5,112.5C 149.624,111.893 149.957,111.56 150.5,111.5 Z"/></g>
<g><path style="opacity:1" fill="#727272" d="M 258.5,111.5 C 260.833,112.833 263.167,112.833 265.5,111.5C 266.043,111.56 266.376,111.893 266.5,112.5C 263.5,113.833 260.5,113.833 257.5,112.5C 257.624,111.893 257.957,111.56 258.5,111.5 Z"/></g>
<g><path style="opacity:1" fill="#737373" d="M 496.5,111.5 C 498.833,112.833 501.167,112.833 503.5,111.5C 504.043,111.56 504.376,111.893 504.5,112.5C 501.5,113.833 498.5,113.833 495.5,112.5C 495.624,111.893 495.957,111.56 496.5,111.5 Z"/></g>
<g><path style="opacity:1" fill="#727272" d="M 521.5,111.5 C 523.833,112.833 526.167,112.833 528.5,111.5C 529.043,111.56 529.376,111.893 529.5,112.5C 526.5,113.833 523.5,113.833 520.5,112.5C 520.624,111.893 520.957,111.56 521.5,111.5 Z"/></g>
<g><path style="opacity:1" fill="#717171" d="M 591.5,111.5 C 593.833,112.833 596.167,112.833 598.5,111.5C 599.043,111.56 599.376,111.893 599.5,112.5C 596.5,113.833 593.5,113.833 590.5,112.5C 590.624,111.893 590.957,111.56 591.5,111.5 Z"/></g>
<g><path style="opacity:1" fill="#737373" d="M 720.5,111.5 C 722.833,112.833 725.167,112.833 727.5,111.5C 728.043,111.56 728.376,111.893 728.5,112.5C 725.5,113.833 722.5,113.833 719.5,112.5C 719.624,111.893 719.957,111.56 720.5,111.5 Z"/></g>
<g><path style="opacity:1" fill="#1a1a1a" d="M 343.5,99.5 C 344.012,101.478 344.179,103.812 344,106.5C 340.423,109.373 336.589,111.873 332.5,114C 336.745,116.039 340.912,118.206 345,120.5C 345.602,123.662 345.102,126.662 343.5,129.5C 342.755,127.253 341.422,125.42 339.5,124C 334.469,121.484 329.469,118.984 324.5,116.5C 328.332,113.75 332.332,111.25 336.5,109C 337.747,107.542 337.747,106.042 336.5,104.5C 338.724,102.566 341.058,100.899 343.5,99.5 Z"/></g>
<g><path style="opacity:1" fill="#878787" d="M 374.5,114.5 C 371.615,114.194 368.948,114.527 366.5,115.5C 365.957,115.44 365.624,115.107 365.5,114.5C 368.645,113.197 371.645,113.197 374.5,114.5 Z"/></g>
<g><path style="opacity:1" fill="#484848" d="M 24.5,117.5 C 22.1667,116.167 19.8333,116.167 17.5,117.5C 16.9569,117.44 16.6236,117.107 16.5,116.5C 19.7844,115.343 23.1177,115.176 26.5,116C 25.9558,116.717 25.2891,117.217 24.5,117.5 Z"/></g>
<g><path style="opacity:1" fill="#4d4d4d" d="M 132.5,117.5 C 130.167,116.167 127.833,116.167 125.5,117.5C 124.957,117.44 124.624,117.107 124.5,116.5C 127.784,115.343 131.118,115.176 134.5,116C 133.956,116.717 133.289,117.217 132.5,117.5 Z"/></g>
<g><path style="opacity:1" fill="#636363" d="M 621.5,115.5 C 621.56,114.957 621.893,114.624 622.5,114.5C 623.8,117.309 623.8,119.976 622.5,122.5C 622.802,119.941 622.468,117.607 621.5,115.5 Z"/></g>
<g><path style="opacity:1" fill="#4d4d4d" d="M 635.5,114.5 C 636.404,115.209 636.737,116.209 636.5,117.5C 634.265,117.795 632.265,117.461 630.5,116.5C 632.781,116.923 634.448,116.256 635.5,114.5 Z"/></g>
<g><path style="opacity:1" fill="#202020" d="M 580.5,176.5 C 591.265,174.423 595.098,178.423 592,188.5C 589.688,191.646 587.188,194.646 584.5,197.5C 586.994,197.747 589.661,197.747 592.5,197.5C 594.111,198.32 594.778,199.654 594.5,201.5C 589.167,201.5 583.833,201.5 578.5,201.5C 578.351,200.448 578.517,199.448 579,198.5C 585.745,194.343 588.745,188.343 588,180.5C 586.915,179.707 585.748,179.04 584.5,178.5C 582.937,179.945 581.604,181.611 580.5,183.5C 579.286,181.141 579.286,178.808 580.5,176.5 Z"/></g>
<g><path style="opacity:1" fill="#212121" d="M 678.5,201.5 C 678.205,199.265 678.539,197.265 679.5,195.5C 680.434,196.568 680.768,197.901 680.5,199.5C 687.488,200.352 689.822,197.519 687.5,191C 685.5,190.167 683.5,189.333 681.5,188.5C 683.422,187.289 685.255,185.956 687,184.5C 687.987,180.494 686.487,178.661 682.5,179C 680.893,180.049 680.227,181.549 680.5,183.5C 679.5,183.5 678.5,183.5 677.5,183.5C 677.083,180.921 677.75,178.754 679.5,177C 683.295,176.163 686.961,176.496 690.5,178C 692.19,181.525 691.524,184.525 688.5,187C 692.861,189.226 694.361,192.726 693,197.5C 688.952,201.795 684.119,203.129 678.5,201.5 Z"/></g>
<g><path style="opacity:1" fill="#202020" d="M 477.5,176.5 C 478.5,176.5 479.5,176.5 480.5,176.5C 480.5,184.167 480.5,191.833 480.5,199.5C 481.978,199.238 483.311,199.571 484.5,200.5C 480.833,201.833 477.167,201.833 473.5,200.5C 474.325,199.614 475.325,199.281 476.5,199.5C 476.5,193.167 476.5,186.833 476.5,180.5C 475.022,180.762 473.689,180.429 472.5,179.5C 474.36,178.675 476.026,177.675 477.5,176.5 Z"/></g>
<g><path style="opacity:1" fill="#515151" d="M 679.5,195.5 C 678.539,197.265 678.205,199.265 678.5,201.5C 677.203,199.307 677.203,196.973 678.5,194.5C 679.107,194.624 679.44,194.957 679.5,195.5 Z"/></g>
<g><path style="opacity:1" fill="#1a1a1a" d="M 474.5,254.5 C 477.187,254.336 479.854,254.503 482.5,255C 486.393,258.588 486.393,262.254 482.5,266C 487.364,270.035 487.698,274.368 483.5,279C 474.969,282.086 470.803,279.252 471,270.5C 472.167,269.333 473.333,268.167 474.5,267C 469.402,262.895 469.402,258.729 474.5,254.5 Z M 477.5,256.5 C 479.818,256.818 481.152,258.152 481.5,260.5C 480.766,264.674 478.933,265.34 476,262.5C 475.257,260.126 475.757,258.126 477.5,256.5 Z M 476.5,268.5 C 481.637,269.782 482.97,272.616 480.5,277C 474.229,276.863 472.896,274.029 476.5,268.5 Z"/></g>
<g><path style="opacity:1" fill="#191919" d="M 588.5,271.5 C 589.043,271.44 589.376,271.107 589.5,270.5C 587.257,269.526 584.924,269.192 582.5,269.5C 580.887,269.056 579.72,268.056 579,266.5C 577.5,257.333 581.333,253.5 590.5,255C 596.379,263.41 595.379,271.077 587.5,278C 585.541,278.931 583.541,279.764 581.5,280.5C 580.692,280.192 580.025,279.692 579.5,279C 583.724,277.898 586.724,275.398 588.5,271.5 Z M 584.5,256.5 C 588.68,257.132 590.68,259.632 590.5,264C 589.862,267.293 587.862,268.293 584.5,267C 581.899,263.504 581.899,260.004 584.5,256.5 Z"/></g>
<g><path style="opacity:1" fill="#1c1c1c" d="M 682.5,254.5 C 688.054,253.102 691.554,255.102 693,260.5C 693.667,264.833 693.667,269.167 693,273.5C 690.779,279.862 686.612,281.695 680.5,279C 676.677,271.637 676.51,264.137 680,256.5C 680.995,255.934 681.828,255.267 682.5,254.5 Z M 684.5,256.5 C 686.017,256.511 687.184,257.177 688,258.5C 690,264.5 690,270.5 688,276.5C 686.062,277.86 684.396,277.527 683,275.5C 680.585,268.816 681.085,262.482 684.5,256.5 Z"/></g>
<g><path style="opacity:1" fill="#131313" d="M 51.5,269.5 C 52.9002,270.1 53.9002,271.1 54.5,272.5C 53.791,273.404 52.791,273.737 51.5,273.5C 51.5,274.833 51.5,276.167 51.5,277.5C 52.675,277.281 53.675,277.614 54.5,278.5C 51.2156,279.657 47.8823,279.824 44.5,279C 45.2438,277.961 46.2438,277.461 47.5,277.5C 48.4511,276.081 48.7845,274.415 48.5,272.5C 45.1667,272.5 41.8333,272.5 38.5,272.5C 38.0618,272.565 37.7284,272.399 37.5,272C 38.3862,270.385 39.3862,268.885 40.5,267.5C 41.404,268.209 41.7373,269.209 41.5,270.5C 43.7354,270.795 45.7354,270.461 47.5,269.5C 48.8003,266.976 48.8003,264.309 47.5,261.5C 46.8933,261.624 46.56,261.957 46.5,262.5C 45.9744,264.23 44.9744,265.564 43.5,266.5C 43.5,265.833 43.1667,265.5 42.5,265.5C 50.4032,250.269 53.4032,251.602 51.5,269.5 Z"/></g>
<g><path style="opacity:1" fill="#212121" d="M 147.5,254.5 C 151.514,254.334 155.514,254.501 159.5,255C 160.337,256.011 160.67,257.178 160.5,258.5C 157.15,258.335 153.817,258.502 150.5,259C 149.663,260.011 149.33,261.178 149.5,262.5C 161.204,262.748 164.204,267.915 158.5,278C 154.167,281.333 149.833,281.333 145.5,278C 146.108,277.13 146.941,276.63 148,276.5C 153.06,278.769 156.227,277.269 157.5,272C 156.137,267.318 153.137,265.818 148.5,267.5C 147.508,263.217 147.174,258.884 147.5,254.5 Z"/></g>
<g><path style="opacity:1" fill="#1d1d1d" d="M 255.5,254.5 C 257.288,254.215 258.955,254.548 260.5,255.5C 255.714,256.713 252.38,259.546 250.5,264C 260.131,262.967 263.631,267.133 261,276.5C 256.276,281.547 251.609,281.547 247,276.5C 243.658,266.682 246.491,259.349 255.5,254.5 Z M 251.5,266.5 C 256.85,267.184 258.684,270.184 257,275.5C 253.841,278.341 251.508,277.674 250,273.5C 249.185,270.802 249.685,268.468 251.5,266.5 Z"/></g>
<g><path style="opacity:1" fill="#212121" d="M 365.5,259.5 C 366.043,259.44 366.376,259.107 366.5,258.5C 363.02,257.194 359.687,257.194 356.5,258.5C 356.585,259.995 355.919,260.995 354.5,261.5C 353.526,259.257 353.192,256.924 353.5,254.5C 358.833,254.5 364.167,254.5 369.5,254.5C 366.789,262.926 363.789,271.259 360.5,279.5C 358.712,279.785 357.045,279.452 355.5,278.5C 359.101,272.298 362.434,265.964 365.5,259.5 Z"/></g>
<g><path style="opacity:1" fill="#202020" d="M 666.5,254.5 C 667.5,254.5 668.5,254.5 669.5,254.5C 669.5,262.167 669.5,269.833 669.5,277.5C 670.978,277.238 672.311,277.571 673.5,278.5C 669.833,279.833 666.167,279.833 662.5,278.5C 663.325,277.614 664.325,277.281 665.5,277.5C 665.5,271.167 665.5,264.833 665.5,258.5C 664.022,258.762 662.689,258.429 661.5,257.5C 663.36,256.675 665.026,255.675 666.5,254.5 Z"/></g>
<g><path style="opacity:1" fill="#707070" d="M 356.5,258.5 C 359.687,257.194 363.02,257.194 366.5,258.5C 366.376,259.107 366.043,259.44 365.5,259.5C 362.713,258.523 359.713,258.19 356.5,258.5 Z"/></g>
<g><path style="opacity:1" fill="#898989" d="M 46.5,262.5 C 46.56,261.957 46.8933,261.624 47.5,261.5C 48.8003,264.309 48.8003,266.976 47.5,269.5C 47.8016,266.941 47.4682,264.607 46.5,262.5 Z"/></g>
<g><path style="opacity:1" fill="#383838" d="M 42.5,265.5 C 43.1667,265.5 43.5,265.833 43.5,266.5C 43.5858,267.496 43.2524,268.329 42.5,269C 44.1341,269.494 45.8008,269.66 47.5,269.5C 45.7354,270.461 43.7354,270.795 41.5,270.5C 41.7373,269.209 41.404,268.209 40.5,267.5C 40.8333,266.5 41.5,265.833 42.5,265.5 Z"/></g>
<g><path style="opacity:1" fill="#535353" d="M 582.5,269.5 C 584.924,269.192 587.257,269.526 589.5,270.5C 589.376,271.107 589.043,271.44 588.5,271.5C 586.5,270.833 584.5,270.167 582.5,269.5 Z"/></g>
<g><path style="opacity:1" fill="#6c6c6c" d="M 51.5,269.5 C 52.8333,269.5 54.1667,269.5 55.5,269.5C 55.7373,270.791 55.404,271.791 54.5,272.5C 53.9002,271.1 52.9002,270.1 51.5,269.5 Z"/></g>
<g><path style="opacity:1" fill="#979797" d="M 38.5,272.5 C 41.8333,272.5 45.1667,272.5 48.5,272.5C 48.7845,274.415 48.4511,276.081 47.5,277.5C 47.5,276.167 47.5,274.833 47.5,273.5C 44.2869,273.81 41.2869,273.477 38.5,272.5 Z"/></g>
<g><path style="opacity:1" fill="#202020" d="M 157.5,334.5 C 168.202,332.38 172.035,336.38 169,346.5C 166.688,349.646 164.188,352.646 161.5,355.5C 164.038,355.776 167.038,355.943 170.5,356C 171.337,357.011 171.67,358.178 171.5,359.5C 165.648,359.949 159.981,359.449 154.5,358C 160.157,354.014 163.824,348.68 165.5,342C 165.914,338.912 164.58,337.078 161.5,336.5C 159.937,337.945 158.604,339.611 157.5,341.5C 156.286,339.141 156.286,336.808 157.5,334.5 Z"/></g>
<g><path style="opacity:1" fill="#212121" d="M 246.5,359.5 C 246.205,357.265 246.539,355.265 247.5,353.5C 248.434,354.568 248.768,355.901 248.5,357.5C 255.488,358.352 257.822,355.519 255.5,349C 253.5,348.167 251.5,347.333 249.5,346.5C 251.422,345.289 253.255,343.956 255,342.5C 255.987,338.494 254.487,336.661 250.5,337C 248.893,338.049 248.227,339.549 248.5,341.5C 247.5,341.5 246.5,341.5 245.5,341.5C 245.083,338.921 245.75,336.754 247.5,335C 251.295,334.163 254.961,334.496 258.5,336C 260.19,339.525 259.524,342.525 256.5,345C 260.861,347.226 262.361,350.726 261,355.5C 256.952,359.795 252.119,361.129 246.5,359.5 Z"/></g>
<g><path style="opacity:1" fill="#646464" d="M 471.5,335.5 C 475.634,334.515 479.968,334.182 484.5,334.5C 484.768,336.099 484.434,337.432 483.5,338.5C 483.5,337.5 483.5,336.5 483.5,335.5C 479.5,335.5 475.5,335.5 471.5,335.5 Z"/></g>
<g><path style="opacity:1" fill="#1d1d1d" d="M 588.5,334.5 C 590.288,334.215 591.955,334.548 593.5,335.5C 588.714,336.713 585.38,339.546 583.5,344C 593.131,342.967 596.631,347.133 594,356.5C 589.276,361.547 584.609,361.547 580,356.5C 576.658,346.682 579.491,339.349 588.5,334.5 Z M 584.5,346.5 C 589.85,347.184 591.684,350.184 590,355.5C 586.841,358.341 584.508,357.674 583,353.5C 582.185,350.802 582.685,348.468 584.5,346.5 Z"/></g>
<g><path style="opacity:1" fill="#202020" d="M 45.5,334.5 C 46.5,334.5 47.5,334.5 48.5,334.5C 48.5,342.167 48.5,349.833 48.5,357.5C 49.9778,357.238 51.3112,357.571 52.5,358.5C 48.8333,359.833 45.1667,359.833 41.5,358.5C 42.325,357.614 43.325,357.281 44.5,357.5C 44.5,351.167 44.5,344.833 44.5,338.5C 43.0222,338.762 41.6888,338.429 40.5,337.5C 42.3596,336.675 44.0262,335.675 45.5,334.5 Z"/></g>
<g><path style="opacity:1" fill="#1f1f1f" d="M 63.5,334.5 C 64.5,334.5 65.5,334.5 66.5,334.5C 66.5,342.167 66.5,349.833 66.5,357.5C 68.1033,357.312 69.4366,357.812 70.5,359C 66.7887,359.825 63.122,359.659 59.5,358.5C 60.325,357.614 61.325,357.281 62.5,357.5C 62.5,351.167 62.5,344.833 62.5,338.5C 61.0222,338.762 59.6888,338.429 58.5,337.5C 60.3596,336.675 62.0262,335.675 63.5,334.5 Z"/></g>
<g><path style="opacity:1" fill="#1f1f1f" d="M 144.5,334.5 C 145.5,334.5 146.5,334.5 147.5,334.5C 147.5,342.167 147.5,349.833 147.5,357.5C 148.978,357.238 150.311,357.571 151.5,358.5C 147.833,359.833 144.167,359.833 140.5,358.5C 141.325,357.614 142.325,357.281 143.5,357.5C 143.5,351.167 143.5,344.833 143.5,338.5C 142.022,338.762 140.689,338.429 139.5,337.5C 141.36,336.675 143.026,335.675 144.5,334.5 Z"/></g>
<g><path style="opacity:1" fill="#1f1f1f" d="M 234.5,334.5 C 235.5,334.5 236.5,334.5 237.5,334.5C 237.5,342.167 237.5,349.833 237.5,357.5C 238.978,357.238 240.311,357.571 241.5,358.5C 237.833,359.833 234.167,359.833 230.5,358.5C 231.325,357.614 232.325,357.281 233.5,357.5C 233.5,351.167 233.5,344.833 233.5,338.5C 232.022,338.762 230.689,338.429 229.5,337.5C 231.36,336.675 233.026,335.675 234.5,334.5 Z"/></g>
<g><path style="opacity:1" fill="#1f1f1f" d="M 351.5,334.5 C 352.5,334.5 353.5,334.5 354.5,334.5C 354.5,342.167 354.5,349.833 354.5,357.5C 356.103,357.312 357.437,357.812 358.5,359C 354.789,359.825 351.122,359.659 347.5,358.5C 348.325,357.614 349.325,357.281 350.5,357.5C 350.5,351.167 350.5,344.833 350.5,338.5C 349.022,338.762 347.689,338.429 346.5,337.5C 348.36,336.675 350.026,335.675 351.5,334.5 Z"/></g>
<g><path style="opacity:1" fill="#161616" d="M 375.5,349.5 C 376.9,350.1 377.9,351.1 378.5,352.5C 377.791,353.404 376.791,353.737 375.5,353.5C 375.5,354.833 375.5,356.167 375.5,357.5C 376.675,357.281 377.675,357.614 378.5,358.5C 375.216,359.657 371.882,359.824 368.5,359C 369.244,357.961 370.244,357.461 371.5,357.5C 372.451,356.081 372.784,354.415 372.5,352.5C 369.167,352.5 365.833,352.5 362.5,352.5C 362.062,352.565 361.728,352.399 361.5,352C 365.48,345.861 369.813,340.028 374.5,334.5C 375.494,339.456 375.827,344.456 375.5,349.5 Z M 370.5,342.5 C 371.468,344.607 371.802,346.941 371.5,349.5C 369.801,349.66 368.134,349.494 366.5,349C 368.058,346.948 369.392,344.781 370.5,342.5 Z"/></g>
<g><path style="opacity:1" fill="#202020" d="M 459.5,334.5 C 460.5,334.5 461.5,334.5 462.5,334.5C 462.5,342.167 462.5,349.833 462.5,357.5C 463.978,357.238 465.311,357.571 466.5,358.5C 462.833,359.833 459.167,359.833 455.5,358.5C 456.325,357.614 457.325,357.281 458.5,357.5C 458.5,351.167 458.5,344.833 458.5,338.5C 457.022,338.762 455.689,338.429 454.5,337.5C 456.36,336.675 458.026,335.675 459.5,334.5 Z"/></g>
<g><path style="opacity:1" fill="#1c1c1c" d="M 471.5,335.5 C 475.5,335.5 479.5,335.5 483.5,335.5C 483.5,336.5 483.5,337.5 483.5,338.5C 480.167,338.5 476.833,338.5 473.5,338.5C 473.5,339.833 473.5,341.167 473.5,342.5C 485.217,342.776 488.217,347.943 482.5,358C 478.167,361.333 473.833,361.333 469.5,358C 470.108,357.13 470.941,356.63 472,356.5C 477.318,358.873 480.485,357.207 481.5,351.5C 479.854,347.178 476.854,345.845 472.5,347.5C 471.509,343.555 471.176,339.555 471.5,335.5 Z"/></g>
<g><path style="opacity:1" fill="#1f1f1f" d="M 567.5,334.5 C 568.5,334.5 569.5,334.5 570.5,334.5C 570.5,342.167 570.5,349.833 570.5,357.5C 572.103,357.312 573.437,357.812 574.5,359C 570.789,359.825 567.122,359.659 563.5,358.5C 564.325,357.614 565.325,357.281 566.5,357.5C 566.5,351.167 566.5,344.833 566.5,338.5C 565.022,338.762 563.689,338.429 562.5,337.5C 564.36,336.675 566.026,335.675 567.5,334.5 Z"/></g>
<g><path style="opacity:1" fill="#202020" d="M 666.5,334.5 C 667.5,334.5 668.5,334.5 669.5,334.5C 669.5,342.167 669.5,349.833 669.5,357.5C 670.978,357.238 672.311,357.571 673.5,358.5C 669.833,359.833 666.167,359.833 662.5,358.5C 663.325,357.614 664.325,357.281 665.5,357.5C 665.5,351.167 665.5,344.833 665.5,338.5C 664.022,338.762 662.689,338.429 661.5,337.5C 663.36,336.675 665.026,335.675 666.5,334.5 Z"/></g>
<g><path style="opacity:1" fill="#212121" d="M 689.5,339.5 C 690.043,339.44 690.376,339.107 690.5,338.5C 687.02,337.194 683.687,337.194 680.5,338.5C 680.092,339.643 679.425,340.643 678.5,341.5C 677.526,339.257 677.192,336.924 677.5,334.5C 682.833,334.5 688.167,334.5 693.5,334.5C 691.086,342.672 688.086,350.672 684.5,358.5C 682.833,359.833 681.167,359.833 679.5,358.5C 683.101,352.298 686.434,345.964 689.5,339.5 Z"/></g>
<g><path style="opacity:1" fill="#707070" d="M 680.5,338.5 C 683.687,337.194 687.02,337.194 690.5,338.5C 690.376,339.107 690.043,339.44 689.5,339.5C 686.713,338.523 683.713,338.19 680.5,338.5 Z"/></g>
<g><path style="opacity:1" fill="#888888" d="M 370.5,342.5 C 370.56,341.957 370.893,341.624 371.5,341.5C 372.8,344.309 372.8,346.976 371.5,349.5C 371.802,346.941 371.468,344.607 370.5,342.5 Z"/></g>
<g><path style="opacity:1" fill="#6e6e6e" d="M 375.5,349.5 C 376.833,349.5 378.167,349.5 379.5,349.5C 379.737,350.791 379.404,351.791 378.5,352.5C 377.9,351.1 376.9,350.1 375.5,349.5 Z"/></g>
<g><path style="opacity:1" fill="#979797" d="M 362.5,352.5 C 365.833,352.5 369.167,352.5 372.5,352.5C 372.784,354.415 372.451,356.081 371.5,357.5C 371.5,356.167 371.5,354.833 371.5,353.5C 368.287,353.81 365.287,353.477 362.5,352.5 Z"/></g>
<g><path style="opacity:1" fill="#525252" d="M 247.5,353.5 C 246.539,355.265 246.205,357.265 246.5,359.5C 245.203,357.307 245.203,354.973 246.5,352.5C 247.107,352.624 247.44,352.957 247.5,353.5 Z"/></g>
<g><path style="opacity:1" fill="#1a1a1a" d="M 60.5,412.5 C 63.1873,412.336 65.854,412.503 68.5,413C 72.3927,416.588 72.3927,420.254 68.5,424C 73.3643,428.035 73.6976,432.368 69.5,437C 60.9694,440.086 56.8027,437.252 57,428.5C 58.1667,427.333 59.3333,426.167 60.5,425C 55.4023,420.895 55.4023,416.729 60.5,412.5 Z M 63.5,414.5 C 65.8184,414.818 67.1517,416.152 67.5,418.5C 66.7662,422.674 64.9329,423.34 62,420.5C 61.2568,418.126 61.7568,416.126 63.5,414.5 Z M 62.5,426.5 C 67.6367,427.782 68.9701,430.616 66.5,435C 60.2292,434.863 58.8959,432.029 62.5,426.5 Z"/></g>
<g><path style="opacity:1" fill="#191919" d="M 165.5,429.5 C 166.043,429.44 166.376,429.107 166.5,428.5C 164.257,427.526 161.924,427.192 159.5,427.5C 157.887,427.056 156.72,426.056 156,424.5C 154.5,415.333 158.333,411.5 167.5,413C 173.379,421.41 172.379,429.077 164.5,436C 162.541,436.931 160.541,437.764 158.5,438.5C 157.692,438.192 157.025,437.692 156.5,437C 160.724,435.898 163.724,433.398 165.5,429.5 Z M 161.5,414.5 C 165.68,415.132 167.68,417.632 167.5,422C 166.862,425.293 164.862,426.293 161.5,425C 158.899,421.504 158.899,418.004 161.5,414.5 Z"/></g>
<g><path style="opacity:1" fill="#1f1f1f" d="M 238.5,412.5 C 249.202,410.38 253.035,414.38 250,424.5C 247.872,427.63 245.372,430.463 242.5,433C 245.086,434.261 247.586,434.428 250,433.5C 251.706,434.308 252.539,435.641 252.5,437.5C 247.167,437.5 241.833,437.5 236.5,437.5C 236.351,436.448 236.517,435.448 237,434.5C 243.745,430.343 246.745,424.343 246,416.5C 244.915,415.707 243.748,415.04 242.5,414.5C 240.937,415.945 239.604,417.611 238.5,419.5C 237.286,417.141 237.286,414.808 238.5,412.5 Z"/></g>
<g><path style="opacity:1" fill="#1c1c1c" d="M 259.5,412.5 C 265.054,411.102 268.554,413.102 270,418.5C 270.667,422.833 270.667,427.167 270,431.5C 267.779,437.862 263.612,439.695 257.5,437C 253.677,429.637 253.51,422.137 257,414.5C 257.995,413.934 258.828,413.267 259.5,412.5 Z M 261.5,414.5 C 263.017,414.511 264.184,415.177 265,416.5C 267,422.5 267,428.5 265,434.5C 262.978,435.991 261.312,435.658 260,433.5C 257.585,426.816 258.085,420.482 261.5,414.5 Z"/></g>
<g><path style="opacity:1" fill="#202020" d="M 346.5,412.5 C 357.202,410.38 361.035,414.38 358,424.5C 355.688,427.646 353.188,430.646 350.5,433.5C 353.339,434.195 356.339,434.362 359.5,434C 360.337,435.011 360.67,436.178 360.5,437.5C 355.167,437.5 349.833,437.5 344.5,437.5C 344.351,436.448 344.517,435.448 345,434.5C 351.764,430.306 354.764,424.306 354,416.5C 352.915,415.707 351.748,415.04 350.5,414.5C 348.937,415.945 347.604,417.611 346.5,419.5C 345.286,417.141 345.286,414.808 346.5,412.5 Z"/></g>
<g><path style="opacity:1" fill="#1e1e1e" d="M 454.5,412.5 C 465.202,410.38 469.035,414.38 466,424.5C 463.872,427.63 461.372,430.463 458.5,433C 461.792,433.795 465.125,434.295 468.5,434.5C 468.5,435.5 468.5,436.5 468.5,437.5C 463.167,437.5 457.833,437.5 452.5,437.5C 452.351,436.448 452.517,435.448 453,434.5C 459.745,430.343 462.745,424.343 462,416.5C 460.915,415.707 459.748,415.04 458.5,414.5C 456.937,415.945 455.604,417.611 454.5,419.5C 453.286,417.141 453.286,414.808 454.5,412.5 Z"/></g>
<g><path style="opacity:1" fill="#212121" d="M 472.5,412.5 C 483.202,410.38 487.035,414.38 484,424.5C 481.872,427.63 479.372,430.463 476.5,433C 479.5,433.333 482.5,433.667 485.5,434C 486.337,435.011 486.67,436.178 486.5,437.5C 481.167,437.5 475.833,437.5 470.5,437.5C 470.351,436.448 470.517,435.448 471,434.5C 477.745,430.343 480.745,424.343 480,416.5C 478.915,415.707 477.748,415.04 476.5,414.5C 474.937,415.945 473.604,417.611 472.5,419.5C 471.286,417.141 471.286,414.808 472.5,412.5 Z"/></g>
<g><path style="opacity:1" fill="#202020" d="M 562.5,412.5 C 573.202,410.38 577.035,414.38 574,424.5C 571.688,427.646 569.188,430.646 566.5,433.5C 569.339,434.195 572.339,434.362 575.5,434C 576.337,435.011 576.67,436.178 576.5,437.5C 571.167,437.5 565.833,437.5 560.5,437.5C 560.351,436.448 560.517,435.448 561,434.5C 567.764,430.306 570.764,424.306 570,416.5C 568.915,415.707 567.748,415.04 566.5,414.5C 564.937,415.945 563.604,417.611 562.5,419.5C 561.286,417.141 561.286,414.808 562.5,412.5 Z"/></g>
<g><path style="opacity:1" fill="#212121" d="M 579.5,437.5 C 579.205,435.265 579.539,433.265 580.5,431.5C 581.434,432.568 581.768,433.901 581.5,435.5C 588.488,436.352 590.822,433.519 588.5,427C 586.5,426.167 584.5,425.333 582.5,424.5C 584.422,423.289 586.255,421.956 588,420.5C 588.987,416.494 587.487,414.661 583.5,415C 581.893,416.049 581.227,417.549 581.5,419.5C 580.5,419.5 579.5,419.5 578.5,419.5C 578.083,416.921 578.75,414.754 580.5,413C 584.295,412.163 587.961,412.496 591.5,414C 593.19,417.525 592.524,420.525 589.5,423C 593.861,425.226 595.361,428.726 594,433.5C 589.952,437.795 585.119,439.129 579.5,437.5 Z"/></g>
<g><path style="opacity:1" fill="#202020" d="M 661.5,412.5 C 672.265,410.423 676.098,414.423 673,424.5C 670.872,427.63 668.372,430.463 665.5,433C 666.416,433.374 667.25,433.874 668,434.5C 669.751,433.826 671.417,433.493 673,433.5C 674.706,434.308 675.539,435.641 675.5,437.5C 669.648,437.949 663.981,437.449 658.5,436C 664.157,432.014 667.824,426.68 669.5,420C 669.914,416.912 668.58,415.078 665.5,414.5C 663.937,415.945 662.604,417.611 661.5,419.5C 660.286,417.141 660.286,414.808 661.5,412.5 Z"/></g>
<g><path style="opacity:1" fill="#202020" d="M 45.5,412.5 C 46.5,412.5 47.5,412.5 48.5,412.5C 48.5,420.167 48.5,427.833 48.5,435.5C 49.9778,435.238 51.3112,435.571 52.5,436.5C 48.8333,437.833 45.1667,437.833 41.5,436.5C 42.325,435.614 43.325,435.281 44.5,435.5C 44.5,429.167 44.5,422.833 44.5,416.5C 43.0222,416.762 41.6888,416.429 40.5,415.5C 42.3596,414.675 44.0262,413.675 45.5,412.5 Z"/></g>
<g><path style="opacity:1" fill="#202020" d="M 144.5,412.5 C 145.5,412.5 146.5,412.5 147.5,412.5C 147.5,420.167 147.5,427.833 147.5,435.5C 148.978,435.238 150.311,435.571 151.5,436.5C 147.833,437.833 144.167,437.833 140.5,436.5C 141.325,435.614 142.325,435.281 143.5,435.5C 143.5,429.167 143.5,422.833 143.5,416.5C 142.022,416.762 140.689,416.429 139.5,415.5C 141.36,414.675 143.026,413.675 144.5,412.5 Z"/></g>
<g><path style="opacity:1" fill="#202020" d="M 369.5,412.5 C 370.5,412.5 371.5,412.5 372.5,412.5C 372.5,420.167 372.5,427.833 372.5,435.5C 373.978,435.238 375.311,435.571 376.5,436.5C 372.833,437.833 369.167,437.833 365.5,436.5C 366.325,435.614 367.325,435.281 368.5,435.5C 368.5,429.167 368.5,422.833 368.5,416.5C 367.022,416.762 365.689,416.429 364.5,415.5C 366.36,414.675 368.026,413.675 369.5,412.5 Z"/></g>
<g><path style="opacity:1" fill="#131313" d="M 690.5,427.5 C 691.9,428.1 692.9,429.1 693.5,430.5C 692.791,431.404 691.791,431.737 690.5,431.5C 690.5,432.833 690.5,434.167 690.5,435.5C 691.675,435.281 692.675,435.614 693.5,436.5C 690.216,437.657 686.882,437.824 683.5,437C 684.244,435.961 685.244,435.461 686.5,435.5C 687.451,434.081 687.784,432.415 687.5,430.5C 684.167,430.5 680.833,430.5 677.5,430.5C 677.062,430.565 676.728,430.399 676.5,430C 677.386,428.385 678.386,426.885 679.5,425.5C 680.404,426.209 680.737,427.209 680.5,428.5C 682.735,428.795 684.735,428.461 686.5,427.5C 687.8,424.976 687.8,422.309 686.5,419.5C 685.893,419.624 685.56,419.957 685.5,420.5C 684.974,422.23 683.974,423.564 682.5,424.5C 682.5,423.833 682.167,423.5 681.5,423.5C 689.403,408.269 692.403,409.602 690.5,427.5 Z"/></g>
<g><path style="opacity:1" fill="#383838" d="M 681.5,423.5 C 682.167,423.5 682.5,423.833 682.5,424.5C 682.586,425.496 682.252,426.329 681.5,427C 683.134,427.494 684.801,427.66 686.5,427.5C 684.735,428.461 682.735,428.795 680.5,428.5C 680.737,427.209 680.404,426.209 679.5,425.5C 679.833,424.5 680.5,423.833 681.5,423.5 Z"/></g>
<g><path style="opacity:1" fill="#898989" d="M 685.5,420.5 C 685.56,419.957 685.893,419.624 686.5,419.5C 687.8,422.309 687.8,424.976 686.5,427.5C 686.802,424.941 686.468,422.607 685.5,420.5 Z"/></g>
<g><path style="opacity:1" fill="#545454" d="M 159.5,427.5 C 161.924,427.192 164.257,427.526 166.5,428.5C 166.376,429.107 166.043,429.44 165.5,429.5C 163.5,428.833 161.5,428.167 159.5,427.5 Z"/></g>
<g><path style="opacity:1" fill="#6e6e6e" d="M 690.5,427.5 C 691.833,427.5 693.167,427.5 694.5,427.5C 694.737,428.791 694.404,429.791 693.5,430.5C 692.9,429.1 691.9,428.1 690.5,427.5 Z"/></g>
<g><path style="opacity:1" fill="#989898" d="M 677.5,430.5 C 680.833,430.5 684.167,430.5 687.5,430.5C 687.784,432.415 687.451,434.081 686.5,435.5C 686.5,434.167 686.5,432.833 686.5,431.5C 683.287,431.81 680.287,431.477 677.5,430.5 Z"/></g>
<g><path style="opacity:1" fill="#525252" d="M 580.5,431.5 C 579.539,433.265 579.205,435.265 579.5,437.5C 578.203,435.307 578.203,432.973 579.5,430.5C 580.107,430.624 580.44,430.957 580.5,431.5 Z"/></g>
<g><path style="opacity:1" fill="#212121" d="M 40.5,492.5 C 51.2019,490.38 55.0353,494.38 52,504.5C 49.872,507.63 47.372,510.463 44.5,513C 47.5,513.333 50.5,513.667 53.5,514C 54.3366,515.011 54.67,516.178 54.5,517.5C 49.1667,517.5 43.8333,517.5 38.5,517.5C 38.3505,516.448 38.5172,515.448 39,514.5C 45.7451,510.343 48.7451,504.343 48,496.5C 46.9148,495.707 45.7481,495.04 44.5,494.5C 42.9373,495.945 41.604,497.611 40.5,499.5C 39.2857,497.141 39.2857,494.808 40.5,492.5 Z"/></g>
<g><path style="opacity:1" fill="#202020" d="M 139.5,492.5 C 150.202,490.38 154.035,494.38 151,504.5C 148.872,507.63 146.372,510.463 143.5,513C 146.854,513.455 150.187,513.955 153.5,514.5C 153.5,515.5 153.5,516.5 153.5,517.5C 148.167,517.5 142.833,517.5 137.5,517.5C 137.351,516.448 137.517,515.448 138,514.5C 144.745,510.343 147.745,504.343 147,496.5C 145.915,495.707 144.748,495.04 143.5,494.5C 141.937,495.945 140.604,497.611 139.5,499.5C 138.286,497.141 138.286,494.808 139.5,492.5 Z"/></g>
<g><path style="opacity:1" fill="#1d1d1d" d="M 165.5,492.5 C 167.288,492.215 168.955,492.548 170.5,493.5C 165.714,494.713 162.38,497.546 160.5,502C 170.131,500.967 173.631,505.133 171,514.5C 166.276,519.547 161.609,519.547 157,514.5C 153.658,504.682 156.491,497.349 165.5,492.5 Z M 161.5,504.5 C 166.85,505.184 168.684,508.184 167,513.5C 163.841,516.341 161.508,515.674 160,511.5C 159.185,508.802 159.685,506.468 161.5,504.5 Z"/></g>
<g><path style="opacity:1" fill="#1f1f1f" d="M 238.5,492.5 C 249.202,490.38 253.035,494.38 250,504.5C 247.872,507.63 245.372,510.463 242.5,513C 245.086,514.261 247.586,514.428 250,513.5C 251.706,514.308 252.539,515.641 252.5,517.5C 247.167,517.5 241.833,517.5 236.5,517.5C 236.351,516.448 236.517,515.448 237,514.5C 243.745,510.343 246.745,504.343 246,496.5C 244.915,495.707 243.748,495.04 242.5,494.5C 240.937,495.945 239.604,497.611 238.5,499.5C 237.286,497.141 237.286,494.808 238.5,492.5 Z"/></g>
<g><path style="opacity:1" fill="#202020" d="M 346.5,492.5 C 357.202,490.38 361.035,494.38 358,504.5C 355.688,507.646 353.188,510.646 350.5,513.5C 353.339,514.195 356.339,514.362 359.5,514C 360.337,515.011 360.67,516.178 360.5,517.5C 355.167,517.5 349.833,517.5 344.5,517.5C 344.351,516.448 344.517,515.448 345,514.5C 351.764,510.306 354.764,504.306 354,496.5C 352.915,495.707 351.748,495.04 350.5,494.5C 348.937,495.945 347.604,497.611 346.5,499.5C 345.286,497.141 345.286,494.808 346.5,492.5 Z"/></g>
<g><path style="opacity:1" fill="#1a1a1a" d="M 366.5,492.5 C 369.187,492.336 371.854,492.503 374.5,493C 378.393,496.588 378.393,500.254 374.5,504C 379.364,508.035 379.698,512.368 375.5,517C 366.969,520.086 362.803,517.252 363,508.5C 364.167,507.333 365.333,506.167 366.5,505C 361.402,500.895 361.402,496.729 366.5,492.5 Z M 369.5,494.5 C 371.818,494.818 373.152,496.152 373.5,498.5C 372.766,502.674 370.933,503.34 368,500.5C 367.257,498.126 367.757,496.126 369.5,494.5 Z M 368.5,506.5 C 373.637,507.782 374.97,510.616 372.5,515C 366.229,514.863 364.896,512.029 368.5,506.5 Z"/></g>
<g><path style="opacity:1" fill="#1f1f1f" d="M 454.5,492.5 C 465.202,490.38 469.035,494.38 466,504.5C 463.872,507.63 461.372,510.463 458.5,513C 461.086,514.261 463.586,514.428 466,513.5C 467.706,514.308 468.539,515.641 468.5,517.5C 463.167,517.5 457.833,517.5 452.5,517.5C 452.351,516.448 452.517,515.448 453,514.5C 459.745,510.343 462.745,504.343 462,496.5C 460.915,495.707 459.748,495.04 458.5,494.5C 456.937,495.945 455.604,497.611 454.5,499.5C 453.286,497.141 453.286,494.808 454.5,492.5 Z"/></g>
<g><path style="opacity:1" fill="#191919" d="M 480.5,509.5 C 481.043,509.44 481.376,509.107 481.5,508.5C 479.257,507.526 476.924,507.192 474.5,507.5C 472.887,507.056 471.72,506.056 471,504.5C 469.5,495.333 473.333,491.5 482.5,493C 488.379,501.41 487.379,509.077 479.5,516C 477.541,516.931 475.541,517.764 473.5,518.5C 472.692,518.192 472.025,517.692 471.5,517C 475.724,515.898 478.724,513.398 480.5,509.5 Z M 476.5,494.5 C 480.68,495.132 482.68,497.632 482.5,502C 481.862,505.293 479.862,506.293 476.5,505C 473.899,501.504 473.899,498.004 476.5,494.5 Z"/></g>
<g><path style="opacity:1" fill="#1d1d1d" d="M 583.5,492.5 C 589.054,491.102 592.554,493.102 594,498.5C 594.667,502.833 594.667,507.167 594,511.5C 591.779,517.862 587.612,519.695 581.5,517C 580.54,515.581 579.707,514.081 579,512.5C 578.333,507.833 578.333,503.167 579,498.5C 579.804,495.854 581.304,493.854 583.5,492.5 Z M 585.5,494.5 C 587.017,494.511 588.184,495.177 589,496.5C 591,502.5 591,508.5 589,514.5C 587.062,515.86 585.396,515.527 584,513.5C 581.585,506.816 582.085,500.482 585.5,494.5 Z"/></g>
<g><path style="opacity:1" fill="#212121" d="M 660.5,517.5 C 660.205,515.265 660.539,513.265 661.5,511.5C 662.434,512.568 662.768,513.901 662.5,515.5C 669.488,516.352 671.822,513.519 669.5,507C 667.5,506.167 665.5,505.333 663.5,504.5C 665.422,503.289 667.255,501.956 669,500.5C 669.987,496.494 668.487,494.661 664.5,495C 662.893,496.049 662.227,497.549 662.5,499.5C 661.5,499.5 660.5,499.5 659.5,499.5C 659.083,496.921 659.75,494.754 661.5,493C 665.295,492.163 668.961,492.496 672.5,494C 674.19,497.525 673.524,500.525 670.5,503C 674.861,505.226 676.361,508.726 675,513.5C 670.952,517.795 666.119,519.129 660.5,517.5 Z"/></g>
<g><path style="opacity:1" fill="#1f1f1f" d="M 57.5,492.5 C 61.5138,492.334 65.5138,492.501 69.5,493C 70.3366,494.011 70.67,495.178 70.5,496.5C 66.8333,496.5 63.1667,496.5 59.5,496.5C 59.5,497.833 59.5,499.167 59.5,500.5C 71.2042,500.748 74.2042,505.915 68.5,516C 64.1667,519.333 59.8333,519.333 55.5,516C 56.0253,515.308 56.6919,514.808 57.5,514.5C 62.6957,516.821 66.029,515.321 67.5,510C 66.1366,505.318 63.1366,503.818 58.5,505.5C 57.5078,501.217 57.1744,496.884 57.5,492.5 Z"/></g>
<g><path style="opacity:1" fill="#212121" d="M 266.5,497.5 C 267.043,497.44 267.376,497.107 267.5,496.5C 264.02,495.194 260.687,495.194 257.5,496.5C 257.585,497.995 256.919,498.995 255.5,499.5C 254.526,497.257 254.192,494.924 254.5,492.5C 259.833,492.5 265.167,492.5 270.5,492.5C 267.789,500.926 264.789,509.259 261.5,517.5C 259.712,517.785 258.045,517.452 256.5,516.5C 260.101,510.298 263.434,503.964 266.5,497.5 Z"/></g>
<g><path style="opacity:1" fill="#212121" d="M 561.5,517.5 C 561.205,515.265 561.539,513.265 562.5,511.5C 563.434,512.568 563.768,513.901 563.5,515.5C 570.488,516.352 572.822,513.519 570.5,507C 568.5,506.167 566.5,505.333 564.5,504.5C 566.422,503.289 568.255,501.956 570,500.5C 570.987,496.494 569.487,494.661 565.5,495C 563.893,496.049 563.227,497.549 563.5,499.5C 562.5,499.5 561.5,499.5 560.5,499.5C 560.083,496.921 560.75,494.754 562.5,493C 566.295,492.163 569.961,492.496 573.5,494C 575.19,497.525 574.524,500.525 571.5,503C 577.29,506.532 577.957,510.865 573.5,516C 569.702,518.454 565.702,518.954 561.5,517.5 Z"/></g>
<g><path style="opacity:1" fill="#202020" d="M 684.5,492.5 C 685.5,492.5 686.5,492.5 687.5,492.5C 687.5,500.167 687.5,507.833 687.5,515.5C 688.978,515.238 690.311,515.571 691.5,516.5C 687.833,517.833 684.167,517.833 680.5,516.5C 681.325,515.614 682.325,515.281 683.5,515.5C 683.5,509.167 683.5,502.833 683.5,496.5C 682.022,496.762 680.689,496.429 679.5,495.5C 681.36,494.675 683.026,493.675 684.5,492.5 Z"/></g>
<g><path style="opacity:1" fill="#6f6f6f" d="M 257.5,496.5 C 260.687,495.194 264.02,495.194 267.5,496.5C 267.376,497.107 267.043,497.44 266.5,497.5C 263.713,496.523 260.713,496.19 257.5,496.5 Z"/></g>
<g><path style="opacity:1" fill="#535353" d="M 474.5,507.5 C 476.924,507.192 479.257,507.526 481.5,508.5C 481.376,509.107 481.043,509.44 480.5,509.5C 478.5,508.833 476.5,508.167 474.5,507.5 Z"/></g>
<g><path style="opacity:1" fill="#545454" d="M 562.5,511.5 C 561.539,513.265 561.205,515.265 561.5,517.5C 560.203,515.307 560.203,512.973 561.5,510.5C 562.107,510.624 562.44,510.957 562.5,511.5 Z"/></g>
<g><path style="opacity:1" fill="#535353" d="M 661.5,511.5 C 660.539,513.265 660.205,515.265 660.5,517.5C 659.203,515.307 659.203,512.973 660.5,510.5C 661.107,510.624 661.44,510.957 661.5,511.5 Z"/></g>
</svg>
